<svg xmlns="http://www.w3.org/2000/svg" width="70.665" height="61.388" viewBox="0 0 70.665 61.388">
  <g id="sun" transform="translate(0 -33.117)">
    <path id="Path_1" data-name="Path 1" d="M232.342,132.453a16.246,16.246,0,1,0-28.919-13.85v18.518h29.425Z" transform="translate(-174.93 -63.462)" fill="#ffd900"/>
    <path id="Path_2" data-name="Path 2" d="M321.205,123.159a16.243,16.243,0,0,0-16.243-16.243c-.539,0-1.071.029-1.6.081a16.246,16.246,0,0,1,11.7,25.457l.506,4.669h3.222l-.506-4.669A16.168,16.168,0,0,0,321.205,123.159Z" transform="translate(-260.873 -63.462)" fill="#fb0"/>
    <g id="Group_1" data-name="Group 1" transform="translate(63.923 58.647)">
      <path id="Path_3" data-name="Path 3" d="M462.058,217.484h-4.641a1.051,1.051,0,0,1,0-2.1h4.641a1.051,1.051,0,0,1,0,2.1Z" transform="translate(-456.367 -215.383)" fill="#ffd900"/>
    </g>
    <g id="Group_2" data-name="Group 2" transform="translate(57.807 40.596)">
      <path id="Path_4" data-name="Path 4" d="M413.754,91.892a1.05,1.05,0,0,1-.743-1.793l3.282-3.282a1.05,1.05,0,1,1,1.486,1.485L414.5,91.584A1.048,1.048,0,0,1,413.754,91.892Z" transform="translate(-412.703 -86.509)" fill="#ffd900"/>
    </g>
    <g id="Group_3" data-name="Group 3" transform="translate(43.039 33.117)">
      <path id="Path_5" data-name="Path 5" d="M308.318,39.859a1.05,1.05,0,0,1-1.051-1.051V34.168a1.051,1.051,0,1,1,2.1,0v4.641A1.05,1.05,0,0,1,308.318,39.859Z" transform="translate(-307.267 -33.117)" fill="#ffd900"/>
    </g>
    <g id="Group_4" data-name="Group 4" transform="translate(24.987 40.592)">
      <path id="Path_6" data-name="Path 6" d="M182.724,91.869a1.047,1.047,0,0,1-.743-.308L178.7,88.279a1.051,1.051,0,0,1,1.486-1.486l3.282,3.282a1.05,1.05,0,0,1-.743,1.793Z" transform="translate(-178.392 -86.486)" fill="#ffd900"/>
    </g>
    <g id="Group_5" data-name="Group 5" transform="translate(34.156 37.204)">
      <path id="Path_7" data-name="Path 7" d="M245.793,66.541a1.051,1.051,0,0,1-.971-.649l-.888-2.144a1.051,1.051,0,0,1,1.941-.8l.888,2.144a1.051,1.051,0,0,1-.97,1.453Z" transform="translate(-243.854 -62.295)" fill="#ffa400"/>
    </g>
    <g id="Group_6" data-name="Group 6" transform="translate(21.596 49.764)">
      <path id="Path_8" data-name="Path 8" d="M157.372,154.958a1.047,1.047,0,0,1-.4-.08l-2.144-.888a1.05,1.05,0,1,1,.8-1.941l2.144.888a1.051,1.051,0,0,1-.4,2.021Z" transform="translate(-154.178 -151.969)" fill="#ffa400"/>
    </g>
    <g id="Group_7" data-name="Group 7" transform="translate(62.337 66.64)">
      <path id="Path_9" data-name="Path 9" d="M448.239,275.44a1.046,1.046,0,0,1-.4-.08l-2.144-.888a1.051,1.051,0,0,1,.8-1.941l2.144.888a1.051,1.051,0,0,1-.4,2.021Z" transform="translate(-445.045 -272.45)" fill="#ffa400"/>
    </g>
    <g id="Group_8" data-name="Group 8" transform="translate(62.337 49.765)">
      <path id="Path_10" data-name="Path 10" d="M446.1,154.96a1.051,1.051,0,0,1-.4-2.021l2.144-.888a1.05,1.05,0,1,1,.8,1.941l-2.144.888A1.046,1.046,0,0,1,446.1,154.96Z" transform="translate(-445.045 -151.97)" fill="#ffa400"/>
    </g>
    <g id="Group_9" data-name="Group 9" transform="translate(51.032 37.204)">
      <path id="Path_11" data-name="Path 11" d="M365.386,66.54a1.051,1.051,0,0,1-.97-1.453l.888-2.144a1.05,1.05,0,1,1,1.941.8l-.888,2.144A1.051,1.051,0,0,1,365.386,66.54Z" transform="translate(-364.335 -62.294)" fill="#ffa400"/>
    </g>
    <g id="Group_12" data-name="Group 12" transform="translate(0 55.056)">
      <path id="Path_12" data-name="Path 12" d="M56.691,203.672H46.956a.842.842,0,0,1-.826-.691,16.245,16.245,0,0,0-32.207,3.173v1.318a.84.84,0,0,1-.84.84H10.573a10.443,10.443,0,1,0-.131,20.884h46.41a12.763,12.763,0,1,0-.16-25.525Z" transform="translate(0 -189.749)" fill="#c8effe"/>
      <g id="Group_11" data-name="Group 11" transform="translate(10.571)">
        <g id="Group_10" data-name="Group 10" transform="translate(17.992)">
          <path id="Path_13" data-name="Path 13" d="M384.961,289.149h-3.222a12.763,12.763,0,1,1,.16,25.525h3.222a12.763,12.763,0,1,0-.16-25.525Z" transform="translate(-356.832 -275.226)" fill="#99e2fc"/>
          <path id="Path_14" data-name="Path 14" d="M218.264,202.982a.842.842,0,0,0,.826.691h3.222a.842.842,0,0,1-.826-.691,16.247,16.247,0,0,0-16.139-13.231c-.481.005-.957.033-1.428.079A16.252,16.252,0,0,1,218.264,202.982Z" transform="translate(-203.919 -189.749)" fill="#99e2fc"/>
        </g>
        <path id="Path_15" data-name="Path 15" d="M85.78,309.384a1.051,1.051,0,0,0,0-2.1H78.818v1.26a.84.84,0,0,1-.84.84h7.8Z" transform="translate(-75.466 -290.82)" fill="#99e2fc"/>
      </g>
    </g>
  </g>
</svg>
