<svg xmlns="http://www.w3.org/2000/svg" width="46" height="46" viewBox="0 0 46 46">
  <g id="acrobat-lt" transform="translate(0.5 0.5)">
    <rect id="Rectangle_20" data-name="Rectangle 20" width="45" height="45" rx="10" transform="translate(0 0)" fill="none" stroke="#e6e6e6" stroke-width="1"/>
    <path id="Path_264" data-name="Path 264" d="M123.152,111.117c-2.12-2.261-7.9-1.271-9.29-1.131a31.259,31.259,0,0,1-3.94-5.07,22.073,22.073,0,0,0,1.272-6.766c0-2.122-.848-4.222-3.094-4.222a2.255,2.255,0,0,0-1.978,1.131c-.989,1.7-.566,5.07.989,8.586a56.419,56.419,0,0,1-3.94,9.295c-2.261.848-7.19,3.094-7.614,5.635a2.076,2.076,0,0,0,.707,1.978,2.644,2.644,0,0,0,1.978.707c2.951,0,5.923-4.08,8.039-7.755a45.318,45.318,0,0,1,7.049-1.837,10.9,10.9,0,0,0,7.331,3.233c1.979,0,2.685-.848,2.951-1.555A2.017,2.017,0,0,0,123.152,111.117Zm-1.978,1.414c-.141.565-.848,1.131-2.122.848a10.214,10.214,0,0,1-4.081-2.122,19.2,19.2,0,0,1,5.07-.141,1.287,1.287,0,0,1,1.132,1.414ZM107.5,95.624a.776.776,0,0,1,.707-.423c.707,0,.848.848.848,1.554a20.139,20.139,0,0,1-.989,5.07C106.935,98.734,107.076,96.473,107.5,95.624Zm-.141,15.918a33.537,33.537,0,0,0,1.837-4.508,24.84,24.84,0,0,0,2.544,3.374,21.94,21.94,0,0,0-4.378,1.134Zm-4.785,3.255c-1.962,3.094-3.8,5.07-4.929,5.07a.85.85,0,0,1-.566-.141.936.936,0,0,1-.141-.848C97.077,117.743,99.339,116.188,102.572,114.8Z" transform="translate(-87.146 -85.552)" fill="#b31900"/>
  </g>
</svg>
