<svg xmlns="http://www.w3.org/2000/svg" xmlns:xlink="http://www.w3.org/1999/xlink" width="46" height="46" viewBox="0 0 46 46">
  <defs>
    <linearGradient id="linear-gradient" x1="0.148" y1="0.025" x2="1.021" y2="0.895" gradientUnits="objectBoundingBox">
      <stop offset="0" stop-color="#9013fe"/>
      <stop offset="1" stop-color="#6610f2"/>
    </linearGradient>
  </defs>
  <g id="bootstrap-lt" transform="translate(0.448 0.725)">
    <rect id="Rectangle_13" data-name="Rectangle 13" width="45" height="45" rx="10" transform="translate(0.052 -0.225)" fill="none" stroke="#e6e6e6" stroke-width="1"/>
    <g id="bootstrap-5-logo-icon" transform="translate(7.552 10.275)">
      <path id="Path_173" data-name="Path 173" d="M3.375,3.187A3.05,3.05,0,0,1,6.355,0H24.246a3.05,3.05,0,0,1,2.98,3.187,17.132,17.132,0,0,0,.535,5.337c.521,1.687,1.4,2.754,2.838,2.891v1.554c-1.439.137-2.316,1.2-2.838,2.891a17.132,17.132,0,0,0-.535,5.337,3.05,3.05,0,0,1-2.98,3.187H6.355A3.05,3.05,0,0,1,3.375,21.2a17.15,17.15,0,0,0-.535-5.337c-.521-1.687-1.4-2.754-2.84-2.891V11.415c1.439-.137,2.319-1.2,2.84-2.891a17.15,17.15,0,0,0,.535-5.337Z" fill="url(#linear-gradient)"/>
      <path id="Path_174" data-name="Path 174" d="M187.761,104.762c0,2.283-1.7,3.667-4.53,3.667H177.9V95.46h5.3c2.357,0,3.9,1.276,3.9,3.235a2.9,2.9,0,0,1-2.366,2.822v.072A3.15,3.15,0,0,1,187.761,104.762Zm-7.8,2.022v-4.269h2.725c1.952,0,2.965.719,2.965,2.121s-.985,2.148-2.845,2.148Zm0-9.679h2.744c1.492,0,2.339.665,2.339,1.869,0,1.285-.985,2-2.771,2h-2.311Z" transform="translate(-167.268 -89.755)" fill="#fff" fill-rule="evenodd"/>
    </g>
  </g>
</svg>
