<svg xmlns="http://www.w3.org/2000/svg" xmlns:xlink="http://www.w3.org/1999/xlink" width="45" height="45" viewBox="0 0 45 45">
  <defs>
    <clipPath id="clip-path">
      <path id="Path_118" data-name="Path 118" d="M93.561,198.885a.156.156,0,0,0-.144.121c-.365,1.042-.859,1.662-1.265,1.662-.233,0-.328-.26-.328-.668a19.8,19.8,0,0,1,.919-4.173,1.159,1.159,0,0,0,.059-.317c0-.287-.157-.428-.545-.428-.419,0-.869.164-1.308.932a1.158,1.158,0,0,0-1.249-.973,2.709,2.709,0,0,0-2.042,1.247,1.85,1.85,0,0,1-1.8.9,5.764,5.764,0,0,0,.513-2.108c0-.8-.394-1.278-1.03-1.278a1.7,1.7,0,0,0-1.525,1.894,2.062,2.062,0,0,0,1.089,1.9c-.627,1.418-1.543,2.7-1.891,2.7-.449,0-.581-2.2-.556-3.769.016-.9.091-.948.091-1.22,0-.157-.1-.264-.51-.264-.952,0-1.246.805-1.29,1.73a4.558,4.558,0,0,1-.164,1.039c-.4,1.418-1.217,2.495-1.752,2.495-.248,0-.315-.248-.315-.572,0-1.021.572-2.3.572-3.385,0-.8-.351-1.306-1.012-1.306-.779,0-1.809.926-2.783,2.662.321-1.329.453-2.616-.5-2.616a1.285,1.285,0,0,0-.59.153.336.336,0,0,0-.192.324c.091,1.415-1.14,5.039-2.307,5.039-.212,0-.315-.23-.315-.6a19.886,19.886,0,0,1,.916-4.171,1.175,1.175,0,0,0,.061-.335c0-.271-.168-.41-.547-.41-.417,0-.869.159-1.306.927a1.161,1.161,0,0,0-1.251-.973c-1.049,0-2.222,1.11-2.737,2.557-.69,1.932-2.079,3.8-3.95,3.8-1.7,0-2.594-1.413-2.594-3.646,0-3.223,2.366-5.857,4.121-5.857.839,0,1.24.535,1.24,1.354,0,.992-.554,1.454-.554,1.832,0,.116.1.23.287.23a2.012,2.012,0,0,0,1.661-2.119c0-1.222-.992-2.117-2.748-2.117-2.9,0-5.819,2.919-5.819,6.659,0,2.976,1.468,4.77,4.007,4.77a4.94,4.94,0,0,0,4.061-2.919c.093,1.3.684,1.983,1.586,1.983a2.276,2.276,0,0,0,1.946-1.317c.191.878.7,1.308,1.354,1.308a2.49,2.49,0,0,0,1.985-1.365c-.009.7.15,1.352.754,1.352.285,0,.625-.066.686-.315.636-2.63,2.208-4.777,2.689-4.777.143,0,.182.137.182.3,0,.715-.5,2.179-.5,3.115,0,1.01.43,1.678,1.317,1.678.984,0,1.983-1.2,2.65-2.965.209,1.645.659,2.972,1.365,2.972.866,0,2.4-1.823,3.336-3.753a2.011,2.011,0,0,0,1.441-.339,4.974,4.974,0,0,0-.356,1.812c0,1.791.855,2.293,1.591,2.293a2.281,2.281,0,0,0,1.946-1.317c.164.757.583,1.306,1.352,1.306a2.44,2.44,0,0,0,2.25-2.241c0-.267-.114-.429-.248-.429Zm-25,1.689c-.487,0-.677-.49-.677-1.22,0-1.269.868-3.387,1.785-3.387.4,0,.552.472.552,1.05,0,1.288-.825,3.558-1.661,3.558Zm16.662-3.786a1.931,1.931,0,0,1-.4-1.235c0-.517.189-.953.415-.953s.3.223.3.533A6.17,6.17,0,0,1,85.222,196.788Zm3.772,3.786c-.486,0-.677-.563-.677-1.22,0-1.224.868-3.387,1.793-3.387.4,0,.543.469.543,1.05C90.653,198.3,89.842,200.575,88.994,200.575Z" transform="translate(-53.367 -174.73)" fill="#fff"/>
    </clipPath>
    <radialGradient id="radial-gradient" cx="0.738" cy="0.844" r="0.773" gradientTransform="translate(0 0) rotate(-49.416)" gradientUnits="objectBoundingBox">
      <stop offset="0" stop-color="#6420ff"/>
      <stop offset="1" stop-color="#6420ff" stop-opacity="0"/>
    </radialGradient>
    <radialGradient id="radial-gradient-2" cx="0.161" cy="0.722" r="0.872" gradientTransform="translate(0 0) rotate(54.703)" gradientUnits="objectBoundingBox">
      <stop offset="0" stop-color="#00c4cc"/>
      <stop offset="1" stop-color="#00c4cc" stop-opacity="0"/>
    </radialGradient>
    <radialGradient id="radial-gradient-3" cx="0.587" cy="0.739" r="0.764" gradientTransform="matrix(0.705, -0.71, 0.326, 0.324, 0, 0)" xlink:href="#radial-gradient"/>
    <radialGradient id="radial-gradient-4" cx="-0.039" cy="0.759" r="0.787" gradientTransform="matrix(0.398, 0.917, -1.537, 0.667, 0.001, 0)" gradientUnits="objectBoundingBox">
      <stop offset="0" stop-color="#00c4cc" stop-opacity="0.729"/>
      <stop offset="0" stop-color="#00c4cc"/>
      <stop offset="1" stop-color="#00c4cc" stop-opacity="0"/>
    </radialGradient>
  </defs>
  <g id="canva-lt" transform="translate(-0.456 -0.01)">
    <g id="Rectangle_22" data-name="Rectangle 22" transform="translate(0.456 0.01)" fill="none" stroke="#e6e6e6" stroke-width="1">
      <rect width="45" height="45" rx="10" stroke="none"/>
      <rect x="0.5" y="0.5" width="44" height="44" rx="9.5" fill="none"/>
    </g>
    <g id="Mask_Group_2" data-name="Mask Group 2" transform="translate(-0.349 0.666)" clip-path="url(#clip-path)">
      <g id="Group_33" data-name="Group 33">
        <rect id="Rectangle_13" data-name="Rectangle 13" width="45.247" height="44.116" rx="10" fill="#7d2ae7"/>
        <rect id="Rectangle_14" data-name="Rectangle 14" width="45.247" height="44.116" rx="10" fill="url(#radial-gradient)"/>
        <rect id="Rectangle_15" data-name="Rectangle 15" width="45.247" height="44.116" rx="10" fill="url(#radial-gradient-2)"/>
        <rect id="Rectangle_16" data-name="Rectangle 16" width="45.247" height="44.116" rx="10" fill="url(#radial-gradient-3)"/>
        <rect id="Rectangle_17" data-name="Rectangle 17" width="45.247" height="44.116" rx="10" fill="url(#radial-gradient-4)"/>
      </g>
    </g>
  </g>
</svg>
