<svg xmlns="http://www.w3.org/2000/svg" xmlns:xlink="http://www.w3.org/1999/xlink" width="45" height="45" viewBox="0 0 45 45">
  <defs>
    <linearGradient id="linear-gradient" x1="-275.972" y1="541.632" x2="-272.429" y2="541.217" gradientUnits="objectBoundingBox">
      <stop offset="0" stop-color="#0288f7"/>
      <stop offset="1" stop-color="#2ee2bd"/>
    </linearGradient>
    <linearGradient id="linear-gradient-2" x1="-777.365" y1="172.855" x2="-779.825" y2="175.642" gradientUnits="objectBoundingBox">
      <stop offset="0" stop-color="#cb1918"/>
      <stop offset="0.388" stop-color="#a2183d"/>
      <stop offset="0.749" stop-color="#902869"/>
      <stop offset="1" stop-color="#73358a"/>
    </linearGradient>
    <linearGradient id="linear-gradient-3" x1="-614.561" y1="148.326" x2="-616.502" y2="150.721" xlink:href="#linear-gradient-2"/>
    <linearGradient id="linear-gradient-4" x1="-2503.954" y1="590.756" x2="-2511.883" y2="600.283" xlink:href="#linear-gradient-2"/>
    <linearGradient id="linear-gradient-5" x1="-422.137" y1="174.693" x2="-424.09" y2="172.905" gradientUnits="objectBoundingBox">
      <stop offset="0" stop-color="#add816"/>
      <stop offset="1" stop-color="#dbd704"/>
    </linearGradient>
    <linearGradient id="linear-gradient-6" x1="-2201.803" y1="719.698" x2="-2210.438" y2="729.62" gradientUnits="objectBoundingBox">
      <stop offset="0" stop-color="#e1282b"/>
      <stop offset="0.388" stop-color="#e3402a"/>
      <stop offset="0.702" stop-color="#e76226"/>
      <stop offset="1" stop-color="#f19a0a"/>
    </linearGradient>
    <linearGradient id="linear-gradient-7" x1="-3228.548" y1="1301.642" x2="-3241.209" y2="1319.593" xlink:href="#linear-gradient-6"/>
    <linearGradient id="linear-gradient-8" x1="-998.549" y1="220.028" x2="-1002.467" y2="223.053" xlink:href="#linear-gradient-6"/>
    <linearGradient id="linear-gradient-9" x1="-1285.99" y1="377.083" x2="-1291.026" y2="382.292" xlink:href="#linear-gradient-6"/>
    <linearGradient id="linear-gradient-10" x1="-1601.419" y1="610.309" x2="-1607.686" y2="618.758" xlink:href="#linear-gradient-6"/>
  </defs>
  <g id="coreldraw-lt" transform="translate(53.988 -0.01)">
    <g id="Rectangle_13" data-name="Rectangle 13" transform="translate(-53.988 0.01)" fill="none" stroke="#e6e6e6" stroke-width="1">
      <rect width="45" height="45" rx="10" stroke="none"/>
      <rect x="0.5" y="0.5" width="44" height="44" rx="9.5" fill="none"/>
    </g>
    <g id="coreldraw-icon" transform="translate(-43.988 6.01)">
      <g id="Group_27" data-name="Group 27" transform="translate(0 0)">
        <path id="Path_119" data-name="Path 119" d="M1.193,85.759c-.409-.186-.763-.33-1.053-.438q-.091-.682-.133-1.368A6.162,6.162,0,0,1,.044,82.84c.246.04.594.1,1.028.185a10.038,10.038,0,0,0,0,1.637Q1.116,85.214,1.193,85.759Zm4.046,2.388a23.776,23.776,0,0,0-2.851-1.8,13.837,13.837,0,0,1-.18-3.087c.781.172,1.7.395,2.72.677a19.153,19.153,0,0,0,.312,4.209Zm10.627.554c-.01.114-.023.231-.035.347a15.334,15.334,0,0,0-4.085,3.075c-.409.433-.782.869-1.123,1.3Q10.049,92.7,9.4,91.96q-.292-.33-.585-.642a49.881,49.881,0,0,1-.57-6.337A34.156,34.156,0,0,1,15.867,88.7Z" transform="translate(0.003 -74.452)" fill="#2ac64b"/>
        <path id="Path_120" data-name="Path 120" d="M1.918,63.78a9.206,9.206,0,0,0-.43,2.115C1.054,65.811.706,65.75.46,65.71a6.374,6.374,0,0,1,.12-.68A13.879,13.879,0,0,1,1.918,63.78Z" transform="translate(-0.413 -57.322)" fill="#008a5a"/>
        <path id="Path_121" data-name="Path 121" d="M26.057,36.38a13.393,13.393,0,0,0-1.491,5.659c0,.048-.005.1-.007.144-1.016-.282-1.938-.5-2.719-.677,0-.033,0-.065.006-.1A8.637,8.637,0,0,1,22.9,37.892,16.47,16.47,0,0,1,26.057,36.38Z" transform="translate(-19.628 -32.697)" fill="#009550"/>
        <path id="Path_122" data-name="Path 122" d="M89,49.318A34.156,34.156,0,0,0,81.374,45.6a23.283,23.283,0,0,1,.634-6.428c.013-.051.027-.1.042-.149a26.822,26.822,0,0,0,7.064,3.072A36.566,36.566,0,0,1,89,49.318Z" transform="translate(-73.128 -35.069)" fill="#00983e"/>
        <path id="Path_123" data-name="Path 123" d="M180.366,36.975a18.931,18.931,0,0,1-.43,3.017c-.285.011-.613.029-.976.061a19.333,19.333,0,0,0,.342-2.368,9.29,9.29,0,0,0-1.672-6.214c.3.084.578.167.84.248A7.915,7.915,0,0,1,180.366,36.975Zm-2.53,3.209a19.792,19.792,0,0,0-2.633.561,18.153,18.153,0,0,0,.235-3.927A12.864,12.864,0,0,0,173.6,30.57c.846.14,1.649.3,2.391.478a8.958,8.958,0,0,1,2.168,5.138A14.608,14.608,0,0,1,177.835,40.184Z" transform="translate(-156.023 -27.475)" fill="#009a37"/>
        <path id="Path_124" data-name="Path 124" d="M95.174,30.832A26.889,26.889,0,0,1,88.11,27.76a8.477,8.477,0,0,1,.352-1q.548-.094,1.13-.153a25.218,25.218,0,0,1,4.6-.022,8.816,8.816,0,0,1,.471,1.323A17.884,17.884,0,0,1,95.174,30.832Z" transform="translate(-79.189 -23.809)" fill="#00863f"/>
        <path id="Path_125" data-name="Path 125" d="M6.821,14.42a9.828,9.828,0,0,0-3.824,5A13.854,13.854,0,0,0,1.66,20.666,9.871,9.871,0,0,1,6.821,14.42ZM8.5,15.71a9.517,9.517,0,0,0-.578.934,16.439,16.439,0,0,0-3.16,1.513,10.308,10.308,0,0,1,2.71-3.151C7.726,15.187,8.075,15.429,8.5,15.71Z" transform="translate(-1.492 -12.96)" fill="#06cbf6"/>
        <path id="Path_126" data-name="Path 126" d="M75.518,4.244c-.262-.081-.544-.164-.84-.248a9.617,9.617,0,0,0-2.585-2.537A8.984,8.984,0,0,1,75.518,4.244Zm-2.48-.671C72.3,3.4,71.5,3.235,70.649,3.1A7.512,7.512,0,0,0,67.13,0,10.853,10.853,0,0,1,73.039,3.573Zm-4.965-.8a25.128,25.128,0,0,0-4.6.022c-.388.039-.763.09-1.13.153C63.44.37,65.222,0,65.222,0h.051A4.522,4.522,0,0,1,68.073,2.776ZM63.366,0A7.368,7.368,0,0,0,60.078,2.75c-.422-.279-.773-.521-1.028-.7A10.56,10.56,0,0,1,63.366,0Z" transform="translate(-53.071 0)" fill="url(#linear-gradient)"/>
        <path id="Path_127" data-name="Path 127" d="M97.989,304.677h1.832l.677-2.957H95.48l.677,2.957Z" transform="translate(-85.812 -271.171)" fill="#666565"/>
      </g>
      <path id="Path_128" data-name="Path 128" d="M26.488,125.875c.352.728.688,1.378.978,1.921a26.913,26.913,0,0,0,1.455,2.437,15.311,15.311,0,0,1,.535-1.55c-.378-.866-.756-1.8-1.117-2.765a38.31,38.31,0,0,1-1.868-6.62,23.756,23.756,0,0,0-2.851-1.8,31.921,31.921,0,0,0,2.868,8.375Z" transform="translate(-21.228 -105.603)" fill="url(#linear-gradient-2)"/>
      <path id="Path_129" data-name="Path 129" d="M4.873,116.716q.3.522.622,1.052a37.387,37.387,0,0,0,3.2,4.408c.03-.15.066-.3.105-.462-.418-.575-.826-1.158-1.178-1.7-.5-.775-1.231-1.9-1.991-3.279a26.716,26.716,0,0,1-3.17-8.946c-.409-.186-.763-.33-1.052-.438a25.7,25.7,0,0,0,3.463,9.366Z" transform="translate(-1.267 -96.481)" fill="url(#linear-gradient-3)"/>
      <path id="Path_130" data-name="Path 130" d="M87.242,167.728c.131.78.283,1.571.449,2.354.016.075.031.149.048.224a17.849,17.849,0,0,1,1.131-1.618q-.592-.749-1.224-1.467-.292-.33-.585-.641C87.118,166.962,87.177,167.344,87.242,167.728Z" transform="translate(-78.245 -149.714)" fill="url(#linear-gradient-4)"/>
      <path id="Path_131" data-name="Path 131" d="M186.849,123.691a26.3,26.3,0,0,1-2.159,6.149c.176.177.348.354.515.529a26.312,26.312,0,0,0,2.62-6.738C187.541,123.641,187.214,123.658,186.849,123.691Zm-3.754.692a30.772,30.772,0,0,1-.715,3.27c.514.464,1.076.983,1.629,1.516a29.592,29.592,0,0,0,1.718-5.347,20.083,20.083,0,0,0-2.632.561Z" transform="translate(-163.914 -111.112)" fill="#97cc1a"/>
      <path id="Path_132" data-name="Path 132" d="M106.063,147.234c-.409.433-.782.869-1.123,1.3a34.933,34.933,0,0,1,3.394,5.161c.291-1.124.592-2.368.863-3.643.175-.822.336-1.655.474-2.477.193-1.146.354-2.291.478-3.418A15.313,15.313,0,0,0,106.063,147.234Zm9.028,1.057-.1.2a44.674,44.674,0,0,1-2.68,4.6c-.756,1.165-1.776,2.53-2.584,3.574l.084.218a40.5,40.5,0,0,0,4.628-6.038q.57-.934,1.065-1.842c.034-.063.069-.126.1-.189q-.251-.263-.515-.529Zm-2.311-2.187-.039.142a52.923,52.923,0,0,1-3.574,9.126c.126.274.24.531.34.765a24.072,24.072,0,0,0,2.922-4.38c.536-1,1.23-2.373,1.893-3.931l.087-.207C113.857,147.087,113.3,146.568,112.781,146.1Z" transform="translate(-94.315 -129.564)" fill="url(#linear-gradient-5)"/>
      <path id="Path_133" data-name="Path 133" d="M129.77,257.9c.78-.808,1.447-1.525,2.053-2.248q-.15-.352-.34-.765A21.477,21.477,0,0,1,129.77,257.9Z" transform="translate(-116.631 -229.082)" fill="url(#linear-gradient-6)"/>
      <path id="Path_134" data-name="Path 134" d="M139.23,269.386c.042-.041.594-.572,1.4-1.448-.027-.069-.055-.141-.084-.218C139.823,268.656,139.273,269.335,139.23,269.386Z" transform="translate(-125.133 -240.613)" fill="url(#linear-gradient-7)"/>
      <path id="Path_135" data-name="Path 135" d="M93.76,189c.921,4.31,2.185,8.263,2.185,8.263h1s.641-2.008,1.345-4.721a34.984,34.984,0,0,0-3.394-5.161A17.816,17.816,0,0,0,93.76,189Z" transform="translate(-84.267 -168.408)" fill="url(#linear-gradient-8)"/>
      <path id="Path_136" data-name="Path 136" d="M75.97,229.509a29.926,29.926,0,0,0,3.52,4.191,35.159,35.159,0,0,1-2.986-5.74,15.212,15.212,0,0,0-.535,1.549Z" transform="translate(-68.278 -204.879)" fill="url(#linear-gradient-9)"/>
      <path id="Path_137" data-name="Path 137" d="M73.36,249.672a41.1,41.1,0,0,0,2.829,3.078c-.067-.083-1.439-1.77-2.724-3.54C73.427,249.367,73.391,249.522,73.36,249.672Z" transform="translate(-65.932 -223.978)" fill="url(#linear-gradient-10)"/>
    </g>
  </g>
</svg>
