<svg xmlns="http://www.w3.org/2000/svg" width="46" height="46" viewBox="0 0 46 46">
  <g id="dw-lt" transform="translate(0.436 0.725)">
    <rect id="Rectangle_13" data-name="Rectangle 13" width="45" height="45" rx="10" transform="translate(0.064 -0.225)" fill="none" stroke="#e6e6e6" stroke-width="1"/>
    <g id="Group_37" data-name="Group 37" transform="translate(-0.54 0.527)">
      <path id="Path_171" data-name="Path 171" d="M48.579,143.331V127.292a.189.189,0,0,1,.157-.2h.015c.235-.015.6-.031,1.05-.031.47-.015,1-.015,1.629-.032s1.285-.015,1.99-.015a9.835,9.835,0,0,1,4.761,1.033,6.872,6.872,0,0,1,2.835,2.836,8.852,8.852,0,0,1,.94,4.151,9.682,9.682,0,0,1-.484,3.211,7.623,7.623,0,0,1-1.347,2.412,8.175,8.175,0,0,1-1.926,1.676,8.576,8.576,0,0,1-2.3.987,9.62,9.62,0,0,1-2.412.313H51.712c-.627,0-1.222,0-1.754-.015-.548-.015-.956-.015-1.222-.032C48.626,143.581,48.579,143.487,48.579,143.331Zm3.308-13.22v10.447a4.719,4.719,0,0,1,.486.016c.141.015.294.015.441.031s.329.016.515.016a5.866,5.866,0,0,0,2.132-.361A4.2,4.2,0,0,0,57.1,139.2a4.833,4.833,0,0,0,1.049-1.738,7.453,7.453,0,0,0,.376-2.352,6.226,6.226,0,0,0-.36-2.205,4.087,4.087,0,0,0-2.678-2.538,6.615,6.615,0,0,0-2.068-.3c-.314,0-.58,0-.8.016-.221,0-.47.015-.735.031Z" transform="translate(-41.474 -113.261)" fill="#ff61f6"/>
      <path id="Path_172" data-name="Path 172" d="M249.556,194.122h-2.929a.214.214,0,0,1-.188-.062.52.52,0,0,1-.094-.188c-.3-1.253-.548-2.381-.752-3.336-.2-.971-.376-1.785-.5-2.459s-.234-1.237-.329-1.707c-.079-.47-.157-.861-.2-1.191h-.016c-.157.689-.294,1.363-.441,2.005-.126.642-.282,1.3-.441,1.958s-.329,1.378-.532,2.161c-.188.784-.408,1.645-.642,2.569-.032.173-.11.251-.251.251h-2.924a.346.346,0,0,1-.221-.047.673.673,0,0,1-.11-.172L235.929,181.8c-.047-.141.015-.2.188-.2h2.964c.141,0,.221.047.235.157.313,1.378.579,2.569.783,3.571s.376,1.848.486,2.553.221,1.285.294,1.724.141.817.187,1.1h.047c.031-.251.062-.485.11-.735q.094-.446.234-1.176c.094-.485.2-1.049.345-1.707s.3-1.41.486-2.287c.172-.861.423-1.848.72-2.96a.515.515,0,0,1,.062-.2c.016-.032.079-.047.173-.047h3.07c.093,0,.14.062.157.172.266,1.144.485,2.146.673,3.008q.258,1.292.47,2.3c.126.658.235,1.238.3,1.707.062.486.141.877.2,1.206a6.932,6.932,0,0,1,.11.8h.046c.079-.313.141-.689.2-1.112s.141-.893.251-1.425c.094-.533.2-1.112.329-1.754.11-.642.266-1.347.441-2.146.172-.783.36-1.644.579-2.569.032-.14.094-.2.2-.2h2.741c.141,0,.188.079.157.22l-3.381,12.076a.376.376,0,0,1-.093.172C249.7,194.107,249.634,194.138,249.556,194.122Z" transform="translate(-215.04 -163.802)" fill="#ff61f6"/>
    </g>
  </g>
</svg>
