<svg xmlns="http://www.w3.org/2000/svg" width="45" height="45" viewBox="0 0 45 45">
  <g id="draw-lt" transform="translate(-0.1 -0.01)">
    <g id="Rectangle_13" data-name="Rectangle 13" transform="translate(0.1 0.01)" fill="none" stroke="#e6e6e6" stroke-width="1">
      <rect width="45" height="45" rx="10" stroke="none"/>
      <rect x="0.5" y="0.5" width="44" height="44" rx="9.5" fill="none"/>
    </g>
    <g id="Diagrams.net_Logo">
      <path id="Path_155" data-name="Path 155" d="M46.522,35.836H42.545l-4.212-7.16a2.057,2.057,0,0,0,1.638-2.012v-5.4A2.047,2.047,0,0,0,37.912,19.2H30.893a2.047,2.047,0,0,0-2.059,2.059v5.4a2.041,2.041,0,0,0,1.614,2.012l-4.212,7.183H22.259A2.047,2.047,0,0,0,20.2,37.918v5.4a2.047,2.047,0,0,0,2.059,2.059h7.019a2.047,2.047,0,0,0,2.059-2.059v-5.4a2.047,2.047,0,0,0-2.059-2.059H28.6l4.165-7.113h3.252l4.188,7.113h-.7a2.047,2.047,0,0,0-2.059,2.059v5.4A2.047,2.047,0,0,0,39.5,45.382h7.019a2.047,2.047,0,0,0,2.059-2.059v-5.4A2.067,2.067,0,0,0,46.522,35.836Z" transform="translate(-12.1 -10.19)" fill="#df6c0c"/>
    </g>
  </g>
</svg>
