<svg xmlns="http://www.w3.org/2000/svg" xmlns:xlink="http://www.w3.org/1999/xlink" width="46" height="46" viewBox="0 0 46 46">
  <defs>
    <linearGradient id="linear-gradient" x1="0.495" y1="0.326" x2="0.495" y2="0.681" gradientUnits="objectBoundingBox">
      <stop offset="0" stop-color="#bf0000"/>
      <stop offset="1" stop-color="#8f0000"/>
    </linearGradient>
  </defs>
  <g id="filezilla-lt" transform="translate(0.413 0.725)">
    <rect id="Rectangle_13" data-name="Rectangle 13" width="45" height="45" rx="10" transform="translate(0.087 -0.225)" fill="none" stroke="#e6e6e6" stroke-width="1"/>
    <g id="FileZilla_logo" transform="translate(9.587 10.275)">
      <path id="path2312" d="M0,.845V1.959A.846.846,0,0,1,.845,2.8.846.846,0,0,1,0,3.648V4.762a.846.846,0,0,1,.845.845A.846.846,0,0,1,0,6.452V7.566a.846.846,0,0,1,.845.845A.846.846,0,0,1,0,9.256V10.37a.846.846,0,0,1,.845.845A.846.846,0,0,1,0,12.06v1.114a.846.846,0,0,1,.845.845A.846.846,0,0,1,0,14.864v1.114a.846.846,0,0,1,.845.845A.846.846,0,0,1,0,17.667v1.114a.846.846,0,0,1,.845.845A.846.846,0,0,1,0,20.471v1.114a.846.846,0,0,1,.845.845A.846.846,0,0,1,0,23.274v1.115a.851.851,0,0,1,.6.247.851.851,0,0,1,.247.6H1.959a.845.845,0,0,1,1.69,0H4.762a.845.845,0,0,1,1.69,0H7.566a.845.845,0,0,1,1.69,0H10.37a.845.845,0,0,1,1.69,0h1.114a.845.845,0,0,1,1.69,0h1.114a.845.845,0,0,1,1.69,0h1.114a.845.845,0,0,1,1.69,0h1.114a.845.845,0,0,1,1.69,0h1.115a.845.845,0,0,1,.845-.845V23.275a.845.845,0,1,1,0-1.69V20.471a.845.845,0,1,1,0-1.69V17.668a.845.845,0,1,1,0-1.69V14.864a.845.845,0,1,1,0-1.69V12.061a.845.845,0,1,1,0-1.69V9.257a.845.845,0,0,1,0-1.69V6.453a.845.845,0,1,1,0-1.69V3.649a.845.845,0,1,1,0-1.69V.845a.851.851,0,0,1-.6-.247.851.851,0,0,1-.248-.6H23.274a.846.846,0,0,1-.845.845A.846.846,0,0,1,21.585,0H20.471a.846.846,0,0,1-.845.845A.846.846,0,0,1,18.781,0H17.667a.846.846,0,0,1-.845.845A.846.846,0,0,1,15.978,0H14.864a.846.846,0,0,1-.845.845A.846.846,0,0,1,13.174,0H12.06a.846.846,0,0,1-.845.845A.846.846,0,0,1,10.37,0H9.256a.846.846,0,0,1-.845.845A.846.846,0,0,1,7.567,0H6.453a.846.846,0,0,1-.845.845A.846.846,0,0,1,4.763,0H3.649A.846.846,0,0,1,2.8.845.846.846,0,0,1,1.959,0H.845A.852.852,0,0,1,.6.6.852.852,0,0,1,0,.845Z" fill="url(#linear-gradient)"/>
      <path id="path2314" d="M69.8,62.3H57.207l.657-3.074h7.674l.7-3.309H55.212L51.738,72.3h3.333L56.6,65.141H64.59l-6.946,6.876,1.22,2.159a4.121,4.121,0,0,1,2.112-.422c1.127,0,2.23.376,3.379.376a7.98,7.98,0,0,0,3.894-.915l.615-2.887a12.888,12.888,0,0,1-4.509.962,11.838,11.838,0,0,1-1.83-.235l6.733-6.548L69.8,62.3Z" transform="translate(-48.303 -52.205)" fill="#fff"/>
    </g>
  </g>
</svg>
