<svg xmlns="http://www.w3.org/2000/svg" width="45" height="45" viewBox="0 0 45 45">
  <g id="figma-lt" transform="translate(-0.481 -0.01)">
    <g id="Rectangle_13" data-name="Rectangle 13" transform="translate(0.481 0.01)" fill="none" stroke="#e6e6e6" stroke-width="1">
      <rect width="45" height="45" rx="10" stroke="none"/>
      <rect x="0.5" y="0.5" width="44" height="44" rx="9.5" fill="none"/>
    </g>
    <g id="figma-icon" transform="translate(12.481 7.01)">
      <path id="Path_113" data-name="Path 113" d="M5.051,92.022A5.053,5.053,0,0,0,10.1,86.971V81.92H5.051a5.051,5.051,0,0,0,0,10.1Z" transform="translate(0 -61.717)" fill="#0acf83"/>
      <path id="Path_114" data-name="Path 114" d="M0,46.011A5.054,5.054,0,0,1,5.051,40.96H10.1v10.1H5.051A5.053,5.053,0,0,1,0,46.011Z" transform="translate(0 -30.858)" fill="#a259ff"/>
      <path id="Path_115" data-name="Path 115" d="M0,5.051A5.054,5.054,0,0,1,5.051,0H10.1V10.1H5.051A5.053,5.053,0,0,1,0,5.051Z" fill="#f24e1e"/>
      <path id="Path_116" data-name="Path 116" d="M40.96,0h5.051a5.051,5.051,0,1,1,0,10.1H40.96V0Z" transform="translate(-30.858)" fill="#ff7262"/>
      <path id="Path_117" data-name="Path 117" d="M51.062,46.011a5.051,5.051,0,1,1-5.051-5.051,5.051,5.051,0,0,1,5.051,5.051Z" transform="translate(-30.858 -30.858)" fill="#1abcfe"/>
    </g>
  </g>
</svg>
