<svg xmlns="http://www.w3.org/2000/svg" width="46" height="46" viewBox="0 0 46 46">
  <g id="github-lt" transform="translate(0.46 0.725)">
    <rect id="Rectangle_13" data-name="Rectangle 13" width="45" height="45" rx="10" transform="translate(0.04 -0.225)" fill="none" stroke="#e6e6e6" stroke-width="1"/>
    <path id="github-icon" d="M13.747,7.87A13.748,13.748,0,0,0,9.4,34.661c.688.127.94-.3.94-.662,0-.328-.014-1.411-.019-2.558-3.825.832-4.631-1.623-4.631-1.623a3.64,3.64,0,0,0-1.526-2.012c-1.247-.854.095-.835.095-.835a2.887,2.887,0,0,1,2.107,1.416,2.928,2.928,0,0,0,4,1.143,2.929,2.929,0,0,1,.873-1.839c-3.054-.347-6.264-1.526-6.264-6.794a5.323,5.323,0,0,1,1.416-3.689,4.936,4.936,0,0,1,.132-3.638s1.154-.37,3.782,1.409a13.042,13.042,0,0,1,6.883,0c2.624-1.778,3.777-1.409,3.777-1.409a4.936,4.936,0,0,1,.135,3.638A5.308,5.308,0,0,1,22.517,20.9c0,5.28-3.217,6.441-6.277,6.782a3.284,3.284,0,0,1,.934,2.545c0,1.838-.016,3.32-.016,3.772,0,.366.248.794.945.66A13.749,13.749,0,0,0,13.748,7.865v0Z" transform="translate(8.54 1.41)" fill="#030542" fill-rule="evenodd"/>
  </g>
</svg>
