<svg xmlns="http://www.w3.org/2000/svg" xmlns:xlink="http://www.w3.org/1999/xlink" width="46" height="46" viewBox="0 0 46 46">
  <defs>
    <linearGradient id="linear-gradient" x1="0.5" x2="0.5" y2="1" gradientUnits="objectBoundingBox">
      <stop offset="0" stop-color="#d1d3d4"/>
      <stop offset="0.388" stop-color="#d1d3d4"/>
      <stop offset="1" stop-color="#d1d3d4"/>
    </linearGradient>
    <linearGradient id="linear-gradient-3" y1="0.5" x2="1" y2="0.5" gradientUnits="objectBoundingBox">
      <stop offset="0" stop-color="#e8e7e5"/>
      <stop offset="1" stop-color="#fff"/>
    </linearGradient>
  </defs>
  <g id="html3-lt" transform="translate(0.777 0.725)">
    <rect id="Rectangle_10" data-name="Rectangle 10" width="45" height="45" rx="10" transform="translate(-0.277 -0.225)" fill="none" stroke="#e6e6e6" stroke-width="1"/>
    <g id="Layer_x0020_1" transform="translate(11.473 10.807)">
      <g id="_513085304">
        <path id="Path_160" data-name="Path 160" d="M19.189,21.5l-8.6,2.316L1.985,21.5,0,0H21.174Z" fill="#2062af" fill-rule="evenodd"/>
        <path id="Path_161" data-name="Path 161" d="M148146,24374v20.23l.016.006,6.969-1.875,1.594-18.361Z" transform="translate(-148135.422 -24372.258)" fill="#3c9cd7" fill-rule="evenodd"/>
        <path id="Path_162" data-name="Path 162" d="M61893.152,61187.75l-6.156,2.57.207,2.539,5.949-2.543,6.332-2.715.266-2.6Z" transform="translate(-61882.574 -61180.633)" fill="#fff" fill-rule="evenodd"/>
        <path id="Path_163" data-name="Path 163" d="M61887,99619.563l.207,2.539,5.949-2.539V99617Z" transform="translate(-61882.574 -99609.883)" fill-rule="evenodd" fill="url(#linear-gradient)"/>
        <path id="Path_164" data-name="Path 164" d="M148046.594,61186l-6.594,2.746v2.555l6.344-2.7Z" transform="translate(-148029.422 -61181.629)" fill-rule="evenodd" fill="url(#linear-gradient)"/>
        <path id="Path_165" data-name="Path 165" d="M62019,135497l.2,2.531,9.133.031-.2,3.391-3.008.844-2.887-.734-.172-2.094h-2.687l.355,4.063,5.422,1.594,5.4-1.578.7-8.047Z" transform="translate(-62014.566 -135487.313)" fill-rule="evenodd" fill="url(#linear-gradient-3)"/>
        <path id="Path_166" data-name="Path 166" d="M61894.152,135497H61888l.2,2.531,5.949.031Zm0,6.8h-.027l-2.887-.734-.18-2.094h-2.68l.348,4.063,5.426,1.594Z" transform="translate(-61883.578 -135487.313)" fill="rgba(0,0,0,0.05)" fill-rule="evenodd"/>
        <path id="Path_167" data-name="Path 167" d="M54129.008,61186h13.3l-.262,2.6h-12.723Z" transform="translate(-54125.141 -61181.629)" fill-rule="evenodd" fill="url(#linear-gradient-3)"/>
        <path id="Path_168" data-name="Path 168" d="M54135.719,61186h-6.711l.32,2.6h6.391Z" transform="translate(-54125.141 -61181.629)" fill="rgba(0,0,0,0.05)" fill-rule="evenodd"/>
      </g>
    </g>
  </g>
</svg>
