<svg xmlns="http://www.w3.org/2000/svg" width="45" height="45" viewBox="0 0 45 45">
  <g id="illustrator-lt" transform="translate(0.63 -0.01)">
    <g id="Rectangle_11" data-name="Rectangle 11" transform="translate(-0.63 0.01)" fill="none" stroke="#e6e6e6" stroke-width="1">
      <rect width="45" height="45" rx="10" stroke="none"/>
      <rect x="0.5" y="0.5" width="44" height="44" rx="9.5" fill="none"/>
    </g>
    <g id="Group_35" data-name="Group 35" transform="translate(0.08 2.278)">
      <path id="Path_107" data-name="Path 107" d="M118.081,142.778h-6.976l-1.419,4.408a.352.352,0,0,1-.363.272h-3.533q-.3,0-.211-.333l6.039-17.4q.088-.272.181-.616a6.558,6.558,0,0,0,.121-1.223.186.186,0,0,1,.158-.211.176.176,0,0,1,.053,0h4.8c.141,0,.221.05.242.15l6.854,19.326c.061.2,0,.3-.181.3h-3.925a.279.279,0,0,1-.3-.211Zm-5.888-3.807h4.77q-.18-.6-.422-1.359T116.027,136l-.544-1.721q-.272-.861-.5-1.662t-.411-1.461h-.03a24.356,24.356,0,0,1-.635,2.415q-.422,1.36-.861,2.778T112.193,138.971Z" transform="translate(-96.268 -116.441)" fill="#ff9a00"/>
      <path id="Path_108" data-name="Path 108" d="M337.943,115.291a2.191,2.191,0,0,1-1.661-.664,2.387,2.387,0,0,1-.634-1.721,2.215,2.215,0,0,1,.679-1.672,2.334,2.334,0,0,1,1.672-.65,2.243,2.243,0,0,1,1.706.65,2.379,2.379,0,0,1-1.763,4.058Zm-2.083,16.275V117.132q0-.272.241-.272h3.713c.16,0,.241.088.241.272v14.434c0,.2-.08.3-.241.3h-3.682C335.95,131.868,335.86,131.767,335.86,131.565Z" transform="translate(-306.106 -100.85)" fill="#ff9a00"/>
    </g>
  </g>
</svg>
