<svg xmlns="http://www.w3.org/2000/svg" width="45" height="45" viewBox="0 0 45 45">
  <g id="indesign-lt" transform="translate(-0.592 -0.01)">
    <g id="Rectangle_12" data-name="Rectangle 12" transform="translate(0.592 0.01)" fill="none" stroke="#e6e6e6" stroke-width="1">
      <rect width="45" height="45" rx="10" stroke="none"/>
      <rect x="0.5" y="0.5" width="44" height="44" rx="9.5" fill="none"/>
    </g>
    <path id="Path_110" data-name="Path 110" d="M36.72,32.133v18.76c0,.2-.093.293-.257.293H32.879c-.164,0-.239-.093-.239-.293V32.133c0-.164.093-.239.257-.239h3.566a.209.209,0,0,1,.239.182.077.077,0,0,1,.018.057ZM47.252,51.479a9.122,9.122,0,0,1-3.93-.822,6.37,6.37,0,0,1-2.762-2.487,7.921,7.921,0,0,1-1-4.169,7.489,7.489,0,0,1,3.912-6.692A9.335,9.335,0,0,1,48.1,36.249a3.3,3.3,0,0,1,.382.018c.164.018.347.018.568.036V30.525c0-.129.054-.2.182-.2H52.94a.161.161,0,0,1,.182.129V47.9c0,.329.018.693.036,1.1.036.382.054.75.071,1.061a.294.294,0,0,1-.182.293,14.075,14.075,0,0,1-2.98.879,15.959,15.959,0,0,1-2.815.254Zm1.793-3.655V39.778c-.164-.036-.329-.071-.493-.093-.2-.018-.4-.036-.6-.036a4.5,4.5,0,0,0-2.065.475,4.105,4.105,0,0,0-1.554,1.354,4.045,4.045,0,0,0-.6,2.322,5.135,5.135,0,0,0,.311,1.883,3.569,3.569,0,0,0,.822,1.3,3.164,3.164,0,0,0,1.243.732,4.785,4.785,0,0,0,1.518.239c.275,0,.529-.018.768-.036a1.659,1.659,0,0,0,.657-.093Z" transform="translate(-20.048 -18.312)" fill="#f36" fill-rule="evenodd"/>
  </g>
</svg>
