<svg xmlns="http://www.w3.org/2000/svg" width="46" height="46" viewBox="0 0 46 46">
  <g id="notion-lt" transform="translate(0.5 0.5)">
    <rect id="Rectangle_20" data-name="Rectangle 20" width="45" height="45" rx="10" transform="translate(0 0)" fill="none" stroke="#e6e6e6" stroke-width="1"/>
    <path id="notion-icon" d="M4.455,4.72c.841.679,1.152.631,2.733.523l14.827-.891c.315,0,.053-.313-.053-.366l-2.47-1.781a2.96,2.96,0,0,0-2.312-.679L2.823,2.578c-.523.05-.631.313-.42.523L4.448,4.724Zm.889,3.456v15.6c0,.841.42,1.152,1.362,1.1L23,23.934c.944-.053,1.051-.631,1.051-1.31V7.127c0-.679-.263-1.051-.841-.994L6.185,7.127c-.631.053-.841.368-.841,1.051Zm16.088.841c.1.471,0,.942-.473.994l-.778.153V21.683a4.089,4.089,0,0,1-1.833.574c-.841,0-1.051-.261-1.682-1.051l-5.14-8.058v7.8l1.625.366s0,.942-1.31.942l-3.616.21a.679.679,0,0,1,.368-.841l.942-.263V11.054l-1.31-.105a.98.98,0,0,1,.891-1.2l3.876-.261,5.346,8.173V10.425l-1.362-.156a.885.885,0,0,1,.841-1.051l3.618-.21ZM1.623,1.159,16.549.059c1.844-.158,2.315-.05,3.467.78L24.783,4.2c.786.576,1.051.732,1.051,1.36V23.94c0,1.15-.42,1.831-1.892,1.936L6.6,26.928a2.169,2.169,0,0,1-2.2-.841L.891,21.525A3.527,3.527,0,0,1,0,19.326V2.992A1.642,1.642,0,0,1,1.623,1.159Z" transform="translate(9.706 8.591)" fill-rule="evenodd"/>
  </g>
</svg>
