<svg xmlns="http://www.w3.org/2000/svg" width="46" height="46" viewBox="0 0 46 46">
  <g id="notepad-lt" transform="translate(0.442 0.725)">
    <rect id="Rectangle_13" data-name="Rectangle 13" width="45" height="45" rx="10" transform="translate(0.058 -0.225)" fill="none" stroke="#e6e6e6" stroke-width="1"/>
    <g id="notepad-logo" transform="translate(-35.986 6.275)">
      <g id="Calque_2_-_copie_5" transform="translate(46.8)">
        <path id="Path_265" data-name="Path 265" d="M141.9,27.764m2.424-2.519M124.965,9.4V3.109A2.409,2.409,0,0,1,127.509.584H142.59a1.688,1.688,0,0,1,1.269.5l3.813,3.889a1.872,1.872,0,0,1,.489,1.339v12.01l.6-.006V6.008a1.978,1.978,0,0,0-.571-1.4L144.164.577a1.984,1.984,0,0,0-1.4-.577H127.255A2.859,2.859,0,0,0,124.4,2.855V9.669ZM124.4,22.08v8.369a2.859,2.859,0,0,0,2.855,2.855h3.629V32.72h-3.375a2.416,2.416,0,0,1-2.544-2.525V22.346Zm20.531,3.42-2.855,2.855" transform="translate(-124.4 0)"/>
      </g>
      <g id="Calque_3" transform="translate(65.118 1.383)">
        <path id="Path_266" data-name="Path 266" d="M417.148,25.962h-3.515V22.289c0-.273,0-.489-.266-.489s-.266.222-.266.489v3.718a.485.485,0,0,0,.489.489h3.559c.273,0,.489.006.489-.266S417.414,25.962,417.148,25.962Z" transform="translate(-413.1 -21.8)"/>
      </g>
      <g id="Calque_6" transform="translate(55.099 19.301)">
        <g id="Group_38" data-name="Group 38" transform="translate(0)">
          <path id="Path_267" data-name="Path 267" d="M256.26,363.3c-.876,0-1.06.374-1.06.685v3.877c0,.311.184.685,1.06.685s1.06-.374,1.06-.685v-3.877C257.319,363.674,257.135,363.3,256.26,363.3Zm-.5.876c0-.3.152-.438.5-.438s.5.133.5.438v3.5c0,.3-.152.438-.5.438s-.5-.133-.5-.438Z" transform="translate(-255.2 -359.55)" fill="#231f20"/>
          <path id="Path_268" data-name="Path 268" d="M300.539,304.2h-.565v3.128H299.6v.438h.374v6.059h.565v-6.059h.876v-.438h-.876Z" transform="translate(-296.783 -304.2)" fill="#231f20"/>
          <path id="Path_269" data-name="Path 269" d="M333.26,363.3c-.876,0-1.06.374-1.06.685v3.877c0,.311.184.685,1.06.685s1.06-.374,1.06-.685v-.622h-.565v.438c0,.3-.152.438-.5.438s-.5-.133-.5-.438v-1.06a1.911,1.911,0,0,0,.5.057c.876,0,1.06-.374,1.06-.685v-2C334.319,363.674,334.135,363.3,333.26,363.3Zm-.5.876c0-.3.152-.438.5-.438s.5.133.5.438V365.8c0,.3-.152.438-.5.438s-.5-.133-.5-.438Z" transform="translate(-327.315 -359.55)" fill="#231f20"/>
          <path id="Path_270" data-name="Path 270" d="M380.26,363.3c-.876,0-1.06.374-1.06.685v6.935h.565v-2.43a1.912,1.912,0,0,0,.5.057c.876,0,1.06-.374,1.06-.685v-3.877C381.325,363.674,381.141,363.3,380.26,363.3Zm-.495.876c0-.3.152-.438.5-.438s.5.133.5.438v3.5c0,.3-.152.438-.5.438s-.5-.133-.5-.438Z" transform="translate(-371.333 -359.55)" fill="#231f20"/>
          <path id="Path_271" data-name="Path 271" d="M427.36,363.3c-.876,0-1.06.374-1.06.685v.622h.565v-.438c0-.3.152-.438.5-.438s.5.133.5.438v1.06a1.91,1.91,0,0,0-.5-.057c-.876,0-1.06.374-1.06.685v2c0,.311.184.685,1.06.685s1.06-.374,1.06-.685v-3.877C428.425,363.674,428.235,363.3,427.36,363.3Zm-.5,2.747c0-.3.152-.438.5-.438s.5.133.5.438v1.624c0,.3-.152.438-.5.438s-.5-.133-.5-.438Z" transform="translate(-415.444 -359.55)" fill="#231f20"/>
          <path id="Path_272" data-name="Path 272" d="M475.661,308.007a1.911,1.911,0,0,0-.5-.057c-.876,0-1.06.374-1.06.685v3.877c0,.311.184.685,1.06.685s1.06-.374,1.06-.685V304.2h-.565v3.807Zm-1,.818c0-.3.152-.438.5-.438s.5.133.5.438v3.5c0,.3-.152.438-.5.438s-.5-.133-.5-.438Z" transform="translate(-460.211 -304.2)" fill="#231f20"/>
          <path id="Path_273" data-name="Path 273" d="M512.693,363.3h-.565v1.25H511.5v.438h.628v1.25h.565v-1.25h.622v-.438h-.622Z" transform="translate(-495.239 -359.55)" fill="#231f20"/>
          <path id="Path_274" data-name="Path 274" d="M545.193,364.55V363.3h-.565v1.25H544v.438h.628v1.25h.565v-1.25h.622v-.438Z" transform="translate(-525.677 -359.55)" fill="#231f20"/>
        </g>
      </g>
      <g id="Calque_9" transform="translate(52.72 19.301)">
        <path id="Path_275" data-name="Path 275" d="M218.76,304.2c-.876,0-1.06.374-1.06.685v11.769h.565V305.076c0-.3.152-.438.5-.438s.5.133.5.438V313.2h.565v-8.312C219.825,304.574,219.641,304.2,218.76,304.2Z" transform="translate(-217.7 -304.2)" fill="#231f20"/>
      </g>
      <g id="Layer_1" transform="translate(41.543 6.51)">
        <g id="Group_39" data-name="Group 39" transform="translate(0)">
          <path id="Path_276" data-name="Path 276" d="M104.488,146.025a4.7,4.7,0,0,1,2.018-.9,5.031,5.031,0,0,1,2.341.539c.317.127.3.5.368.787-.228.051-.457.1-.685.152.1-.159.2-.311.292-.469-.006-.152-.184-.209-.273-.317l-.362.247-.247-.209a1.023,1.023,0,0,1-.673-.057,2.257,2.257,0,0,0-1.129-.241,2.01,2.01,0,0,0-.463.336c0-.063.006-.19.006-.254-.082.1-.165.19-.241.292a.86.86,0,0,0-.679,1.11l-.349.273a.816.816,0,0,0,.089-.787c-.406.121-.438.565-.622.882a11.156,11.156,0,0,0-.666.983,3.845,3.845,0,0,0,.038.6c-.152-.044-.3-.082-.45-.127a6.759,6.759,0,0,1,1.688-2.842Z" transform="translate(-98.913 -142.421)" fill="#90e59a"/>
          <path id="Path_277" data-name="Path 277" d="M142.012,152.332a1.961,1.961,0,0,1,.463-.336,2.257,2.257,0,0,1,1.129.241,2.857,2.857,0,0,1-.228.641c-.3-.159-.609-.33-.895-.514l.171.343c-.063.089-.133.171-.2.26-.127-.165-.254-.33-.374-.5-.044.247-.228.431-.482.292.057-.133.114-.26.171-.387.076-.1.159-.2.241-.292.006.057,0,.184,0,.254Z" transform="translate(-135.252 -148.855)" fill="#5cce74"/>
          <path id="Path_278" data-name="Path 278" d="M102.116,155.8a1.019,1.019,0,0,0,.673.057l.247.209.362-.247c.082.108.266.165.273.317-.089.159-.19.317-.292.47a2.269,2.269,0,0,0-.222.057c.114.14.228.279.343.412a2.05,2.05,0,0,1-1.2-.546c-.336.051-.577.412-.926.45a3.733,3.733,0,0,1-.489-.279,1.931,1.931,0,0,1-.2.533,1.75,1.75,0,0,1-.546.159c.006.082.019.171.025.254-.2-.19-.438-.368-.717-.241.2.209-.1.292-.241.387-.273.152-.577.349-.609.692-.076.2.006.5-.216.609a2.727,2.727,0,0,1-.787.019c.019-.063.051-.184.07-.247.152.044.3.082.45.127a2.751,2.751,0,0,1-.038-.6,11.154,11.154,0,0,1,.666-.983c.184-.317.216-.761.622-.882a.816.816,0,0,1-.089.787c.114-.1.228-.184.349-.273a.86.86,0,0,1,.679-1.11c-.057.127-.114.26-.171.387.247.14.438-.044.482-.292.121.171.247.336.374.5.063-.089.127-.171.2-.26l-.171-.343c.292.184.59.349.895.514a3.543,3.543,0,0,0,.209-.634m-2.532,4.035c.14.025.273.051.412.082a3.356,3.356,0,0,0-.355,1.326,2.457,2.457,0,0,0,.527.78c-.279.082-.666.019-.857.279-.114.508.349.8.647,1.11a1.564,1.564,0,0,1-1.066-.863,3.954,3.954,0,0,1,.742-.673,1.705,1.705,0,0,1-.051-2.043m4.4,1.072c.1.089.209.178.311.26.013.171.025.349.032.52a1.327,1.327,0,0,1-.343-.78m2.7.133a.246.246,0,0,1,.406-.006,4.59,4.59,0,0,1,.482.926l.546.038c-.362.133-.7.336-.755.755-.152-.216.07-.412.159-.609-.2-.425-.7-.641-.838-1.1m-5.177.273.108-.057c.019.286.152.615-.057.857-.209-.019-.412-.032-.615-.07a1.233,1.233,0,0,0,.565-.73m2.817.381a3.491,3.491,0,0,0,.514.546c.2-.235.654-.609.837-.165-.3.146-.685.254-.787.622,0,.013-.006.032-.006.044a6.136,6.136,0,0,0,.26.945c-.7-.45-.279-1.421-.818-1.992m3.794.089a1.381,1.381,0,0,1,.844.324,2.879,2.879,0,0,1-.844-.108v-.216m-.749,1.637c.362.159.717.33,1.1.457.216-.089.52-.565.7-.216a1.273,1.273,0,0,1-1.06.425,3.062,3.062,0,0,1-.736-.666m-10.069.057c.07.013.2.032.279.038a14.47,14.47,0,0,0,.736,2.183c.241.393.438.806.666,1.206a3.634,3.634,0,0,0,1.015.977,1.932,1.932,0,0,0,2.684-.368c.362-.774-.089-1.593-.4-2.3-.533-.838-1.922-.2-1.884.711a1.241,1.241,0,0,1,1.777-1.212,2.912,2.912,0,0,1,.92,1.605,1.5,1.5,0,0,1-.774,1.815,3.017,3.017,0,0,1-1.694.2c-.774-.038-1.275-.666-1.777-1.167a13.511,13.511,0,0,1-1.186-1.98,6.159,6.159,0,0,1-.362-1.7m4.111,2.322c.089.1.159.216.247.324a.87.87,0,0,1-.876.222c-.127-.14-.26-.279-.387-.419.3.184.647.558,1.028.324-.013-.152-.013-.3-.013-.45Z" transform="translate(-93.762 -152.425)" fill="#75d66f"/>
          <path id="Path_279" data-name="Path 279" d="M129.083,166.627c.349-.038.59-.4.926-.45a2.047,2.047,0,0,0,1.2.546c-.114-.14-.228-.279-.343-.412.057-.013.171-.044.222-.057.228-.057.457-.1.685-.152.057.216.114.438.184.654-.108.108-.216.222-.33.33.235.324.45.666.685.99.489-.133.8.336,1.015.7a1.958,1.958,0,0,1-1.275-.349c-.209-.19-.412-.387-.634-.571l-.4.114c-.108-.26-.171-.6-.5-.666.025.133.057.26.082.393a.8.8,0,0,1-.634.1c.089-.184.184-.362.279-.546-.273-.025-.431.209-.584.393-.032-.1-.063-.19-.089-.286-.1-.013-.2-.038-.3-.044-.146.032-.2.241-.362.247-.26-.025-.508-.133-.774-.146a7.011,7.011,0,0,0-.926.273c-.1-.082-.209-.165-.311-.247.14-.1.45-.178.241-.387.286-.127.52.051.717.241-.006-.082-.019-.171-.025-.254a1.637,1.637,0,0,0,.546-.159,2.01,2.01,0,0,0,.2-.533c.171.1.33.2.5.273Z" transform="translate(-121.484 -162.072)" fill="#8fe772"/>
          <path id="Path_280" data-name="Path 280" d="M100.112,176.73c.108-.108.216-.222.33-.33a1.774,1.774,0,0,0,.52.869,4.152,4.152,0,0,0,1.5.863,2.045,2.045,0,0,0,1.5-.254c.381-.343.558-.844.952-1.174.368.184.78.266,1.136.476a2.835,2.835,0,0,1,.768,1.015c-.241.044-.476.1-.717.146.089.152.184.311.279.463-.063.1-.127.19-.184.292-.121-.19-.235-.381-.349-.571a2.469,2.469,0,0,0-.73.3l.076.362a1.766,1.766,0,0,0-1.656.279c-.152.082-.311.178-.463.26a9.112,9.112,0,0,0-.964-.482,7.113,7.113,0,0,1-.45.628c-.057-.165-.121-.33-.171-.5-.057.006-.171.025-.228.032a2.907,2.907,0,0,0,.013.7l-.463-.057c.07-.317.152-.628.216-.952l-.311.025a2.013,2.013,0,0,0-.222,1.345c-.108-.089-.209-.178-.311-.26.013-.33.057-.653.082-.983-.343-.146-.482.247-.546.5-.19-.063-.381-.121-.565-.19-.425-.133-.7-.508-1.117-.673a1.839,1.839,0,0,1-.539-.425c-.019.063-.057.19-.07.254a.55.55,0,0,1-.159.812c-.1-.013-.3-.038-.412-.057a2.636,2.636,0,0,0,1.294.533l-.254.178a7.158,7.158,0,0,1-1.307-.374c-.013-.165-.032-.336-.044-.5-.121-.025-.235-.044-.355-.07-.14-.025-.273-.051-.412-.082-.1-.121-.216-.33-.4-.222-.146.133-.266.292-.406.438-.082-.114-.171-.228-.254-.343-.622.076-.571.825-.971,1.161-.254.184-.241.533-.476.736a3.812,3.812,0,0,1-.019-.85c.127-.5.349-.971.476-1.478.013-.038.032-.121.044-.165a2.515,2.515,0,0,0,.787-.019c.222-.108.133-.412.216-.609a.994.994,0,0,1,.609-.692c.1.082.209.165.311.247a6.166,6.166,0,0,1,.926-.273c.266.013.514.121.774.146.159-.006.209-.216.362-.247.1.006.2.032.3.044.032.1.063.19.089.286.159-.184.311-.419.584-.393-.1.184-.184.362-.279.546a.827.827,0,0,0,.634-.1c-.032-.133-.057-.26-.082-.393.33.057.393.4.5.666l.4-.114c.216.184.425.381.634.571a1.958,1.958,0,0,0,1.275.349c-.209-.362-.527-.837-1.015-.7-.235-.324-.457-.666-.692-.99Z" transform="translate(-89.963 -171.718)" fill="#a9f37e"/>
          <path id="Path_281" data-name="Path 281" d="M258.076,204.846c.241-.051.476-.1.717-.146.076.165.14.33.2.495a4.952,4.952,0,0,1-2.5,1.034,1.284,1.284,0,0,1-1-.254,1.783,1.783,0,0,1,1.656-.279l-.076-.362a2.618,2.618,0,0,1,.73-.3c.114.19.235.381.349.571.057-.1.121-.2.184-.292-.082-.152-.178-.311-.266-.463Z" transform="translate(-241.925 -198.223)" fill="#87de71"/>
          <path id="Path_282" data-name="Path 282" d="M147.363,313.724c-.089-.1-.159-.222-.247-.324,0,.152.006.3.013.45-.381.235-.723-.14-1.028-.324.127.14.26.273.387.419A.87.87,0,0,0,147.363,313.724Z" transform="translate(-139.466 -300.026)" fill="none"/>
          <path id="Path_283" data-name="Path 283" d="M87.773,258.89c-.235-.273-.634-.146-.952-.19-.343.019-.888-.057-1.021.362.622.019,1.244.025,1.865.057C87.7,259.062,87.748,258.947,87.773,258.89Z" transform="translate(-82.992 -248.796)" fill="none"/>
          <path id="Path_284" data-name="Path 284" d="M213.907,240.42c.343.558,1.015.489,1.58.476a5.843,5.843,0,0,1-.717-.654c-.114-.108-.159-.324-.336-.343a6.259,6.259,0,0,1-1.034.082h-.381c-.019.209-.019.419-.019.628.082.044.254.133.336.184A.832.832,0,0,1,213.907,240.42Z" transform="translate(-202.122 -231.189)" fill="none"/>
          <path id="Path_285" data-name="Path 285" d="M77.43,257.57l-.025-.07a.662.662,0,0,0-.038.1l-.07.082a.347.347,0,0,0-.044.057c-.165.14-.133.355-.152.546.025.044.082.14.108.19.286.171.228-.457.032-.47a1.128,1.128,0,0,0,.292-.476Z" transform="translate(-74.844 -247.673)" fill="none"/>
          <path id="Path_286" data-name="Path 286" d="M97.3,276.8a6.542,6.542,0,0,0,.355,1.707,14.213,14.213,0,0,0,1.186,1.98c.508.5,1.009,1.129,1.777,1.167a3.01,3.01,0,0,0,1.694-.2,1.5,1.5,0,0,0,.774-1.815,2.973,2.973,0,0,0-.92-1.605,1.241,1.241,0,0,0-1.777,1.212c-.038-.914,1.351-1.548,1.884-.711a2.85,2.85,0,0,1,.4,2.3,1.933,1.933,0,0,1-2.684.368,3.634,3.634,0,0,1-1.015-.977c-.228-.393-.431-.812-.666-1.206a15.484,15.484,0,0,1-.736-2.183C97.5,276.832,97.37,276.813,97.3,276.8Z" transform="translate(-93.762 -265.748)" fill="none"/>
          <path id="Path_287" data-name="Path 287" d="M88.2,269.151c.019.044.063.133.089.178a19.826,19.826,0,0,0,2.037.019c-.025-.032-.076-.089-.108-.121A10.226,10.226,0,0,0,88.2,269.151Z" transform="translate(-85.24 -258.55)" fill="none"/>
          <path id="Path_288" data-name="Path 288" d="M245.606,236.766a.246.246,0,0,0-.406.006c.14.457.634.679.838,1.1-.089.19-.311.393-.159.609a1.007,1.007,0,0,1,.755-.755l-.546-.038A4.934,4.934,0,0,0,245.606,236.766Z" transform="translate(-232.279 -228.157)" fill="none"/>
          <path id="Path_289" data-name="Path 289" d="M66.335,256.325c-.07.159-.152.324-.235.476a2.113,2.113,0,0,0,.3.565c.038-.019.114-.051.146-.063-.273-.317-.057-.7.121-1A2.051,2.051,0,0,1,66.335,256.325Z" transform="translate(-64.542 -246.549)" fill="none"/>
          <path id="Path_290" data-name="Path 290" d="M268.644,250.517a1.366,1.366,0,0,0-.837-.317H267.8v.209A2.88,2.88,0,0,0,268.644,250.517Z" transform="translate(-253.445 -240.836)" fill="none"/>
          <path id="Path_291" data-name="Path 291" d="M111.894,229.764a1.575,1.575,0,0,1-.19-1.364c-.114.032-.228.057-.343.083a2.4,2.4,0,0,0-.52,1.459A2.229,2.229,0,0,0,111.894,229.764Z" transform="translate(-106.434 -220.419)" fill="none"/>
          <path id="Path_292" data-name="Path 292" d="M46.836,254.4a2.014,2.014,0,0,1-.647.013,1.4,1.4,0,0,1-.52.552c-.228.14-.127.463-.089.679a8.938,8.938,0,0,0,1.237.07,4.263,4.263,0,0,1-.3-.7C46.487,254.749,46.823,254.647,46.836,254.4Z" transform="translate(-45.272 -244.769)" fill="none"/>
          <path id="Path_293" data-name="Path 293" d="M141.042,236.342c.025-.146.063-.3.1-.444-.235-.222-.59-.216-.882-.3a1.429,1.429,0,0,0,.241,1.129A4.221,4.221,0,0,1,141.042,236.342Z" transform="translate(-133.964 -227.162)" fill="none"/>
          <path id="Path_294" data-name="Path 294" d="M227.6,269.006c-.622.108-1.256.032-1.878.114a7.457,7.457,0,0,0-2.024-.1c.006.063.013.19.019.254a14.115,14.115,0,0,0,2-.114,6.228,6.228,0,0,0,1.751.038c.3-.032.571.152.863.121C228.4,268.911,227.856,269.025,227.6,269.006Z" transform="translate(-212.143 -258.436)" fill="none"/>
          <path id="Path_295" data-name="Path 295" d="M261.1,259.279c-.025.044-.076.14-.1.19a7.031,7.031,0,0,0,1.155.1,2.491,2.491,0,0,0,1.491-.108,1.568,1.568,0,0,0-.495-.292A13.827,13.827,0,0,0,261.1,259.279Z" transform="translate(-247.076 -249.223)" fill="none"/>
          <path id="Path_296" data-name="Path 296" d="M257.1,276.357a11.781,11.781,0,0,1-1.1-.457,3.157,3.157,0,0,0,.73.666,1.273,1.273,0,0,0,1.06-.425C257.618,275.792,257.313,276.268,257.1,276.357Z" transform="translate(-242.393 -264.905)" fill="none"/>
          <path id="Path_297" data-name="Path 297" d="M225.8,260.405c-.152.038-.482-.013-.444.247.431.025.869.025,1.3.013.178.006.254-.082.235-.266C226.529,260.4,226.161,260.38,225.8,260.405Z" transform="translate(-213.69 -250.381)" fill="none"/>
          <path id="Path_298" data-name="Path 298" d="M307.6,258.977c-.019.152-.032.3-.044.457-.063.038-.184.114-.241.159,0,.14-.013.286-.019.425a9.081,9.081,0,0,0,1.523-.336,1.132,1.132,0,0,0,.032-.527A9.413,9.413,0,0,0,307.6,258.977Z" transform="translate(-290.439 -249.054)" fill="none"/>
          <path id="Path_299" data-name="Path 299" d="M155.373,241.9l-.108.057a1.233,1.233,0,0,1-.565.73c.2.038.406.051.615.07C155.525,242.509,155.392,242.179,155.373,241.9Z" transform="translate(-147.521 -233.062)" fill="none"/>
          <path id="Path_300" data-name="Path 300" d="M171.56,244.231a1.881,1.881,0,0,0-.495-.831c-.552.025-1.1.006-1.656.025-.07.26-.159.508-.209.774C169.98,244.269,170.773,244.237,171.56,244.231Z" transform="translate(-161.101 -234.467)" fill="none"/>
          <path id="Path_301" data-name="Path 301" d="M209.969,251.388c.1-.368.482-.476.787-.622-.19-.45-.634-.07-.837.165a3.836,3.836,0,0,1-.419-.431c.393.577.076,1.459.723,1.884a6.949,6.949,0,0,1-.26-.945Z" transform="translate(-198.844 -241.117)" fill="none"/>
          <path id="Path_302" data-name="Path 302" d="M135.339,258.793c.381-.114.742.14,1.123.14.73.019,1.459.019,2.189-.013-.006-.082-.019-.254-.025-.336a10.447,10.447,0,0,0-2.919.127,5.444,5.444,0,0,1-.774-.171c-.178-.241-.641-.07-.933-.14.044.133.082.273.121.406.235.006.476.013.711.013C134.983,258.984,135.174,258.806,135.339,258.793Z" transform="translate(-128.134 -248.515)" fill="none"/>
          <path id="Path_303" data-name="Path 303" d="M141.5,270.7c.057.076.114.159.171.235.228.006.463.013.692.025,1.1.006,2.189.025,3.287-.013a1.011,1.011,0,0,1,.082-.14c-1.123-.076-2.246-.089-3.369-.108C142.077,270.706,141.792,270.706,141.5,270.7Z" transform="translate(-135.158 -260.035)" fill="none"/>
          <path id="Path_304" data-name="Path 304" d="M209.692,114.211l-.013.076a2.209,2.209,0,0,0,2.119.66,1.538,1.538,0,0,0,.723-.666,4.392,4.392,0,0,0,.235-3.185,2.382,2.382,0,0,1-.742-.768c-.349-.482-.926-.99-1.561-.761a1.683,1.683,0,0,0-1.282,1.256,3.394,3.394,0,0,0,.006,2.373C209.242,113.571,209.312,114.034,209.692,114.211Zm1.218-1.872a.726.726,0,0,1-.6.99c-.228-.159-.546-.3-.495-.634C209.73,112.086,210.555,112.105,210.91,112.34Z" transform="translate(-198.338 -109.073)" fill="#fbfdfc"/>
          <path id="Path_305" data-name="Path 305" d="M279.465,127.373c.292-.311.647-.552.958-.837a2.951,2.951,0,0,0,.577-2.754,1.232,1.232,0,0,0-1.428-.768,2.61,2.61,0,0,0-1.954,1.1,9.219,9.219,0,0,1-.019,2.049A2.73,2.73,0,0,1,279.465,127.373Zm.533-2.887c.146-.032.3-.07.444-.114a1.1,1.1,0,0,1,.07.895c-.292.286-.711-.006-.831-.317C279.789,124.791,279.9,124.638,280,124.486Z" transform="translate(-262.623 -121.708)" fill="#fbfdfc"/>
          <path id="Path_306" data-name="Path 306" d="M267.8,250.1Z" transform="translate(-253.445 -240.742)" fill="#231f20"/>
          <path id="Path_307" data-name="Path 307" d="M279.465,127.373c.292-.311.647-.552.958-.837a2.951,2.951,0,0,0,.577-2.754,1.232,1.232,0,0,0-1.428-.768,2.61,2.61,0,0,0-1.954,1.1,9.219,9.219,0,0,1-.019,2.049A2.73,2.73,0,0,1,279.465,127.373Zm.533-2.887c.146-.032.3-.07.444-.114a1.1,1.1,0,0,1,.07.895c-.292.286-.711-.006-.831-.317C279.789,124.791,279.9,124.638,280,124.486Z" transform="translate(-262.623 -121.708)" fill="none"/>
          <path id="Path_308" data-name="Path 308" d="M89.919,259.119l.1-.228c-.235-.273-.634-.146-.952-.19a1.673,1.673,0,0,0-.869.146v.222C88.771,259.081,89.348,259.093,89.919,259.119Z" transform="translate(-85.24 -248.796)" fill="none"/>
          <path id="Path_309" data-name="Path 309" d="M111.7,228.4c-.114.032-.228.057-.343.083a2.4,2.4,0,0,0-.52,1.459,2.2,2.2,0,0,0,1.053-.178A1.575,1.575,0,0,1,111.7,228.4Z" transform="translate(-106.434 -220.419)" fill="none"/>
          <path id="Path_310" data-name="Path 310" d="M95.605,152.011c.19-.26.571-.2.857-.279a2.294,2.294,0,0,1-.527-.78,3.413,3.413,0,0,1,.355-1.326c.121.025.235.044.355.07.019.165.032.33.044.5A7.159,7.159,0,0,0,98,150.57a3.42,3.42,0,0,0,1.84-.013q-.019-.209-.019-.419c.063-.254.2-.647.546-.5-.032.33-.07.654-.082.983a1.305,1.305,0,0,0,.343.78c-.006-.171-.019-.349-.032-.52a2.019,2.019,0,0,1,.222-1.345l.311-.025c-.063.317-.146.634-.216.952l.463.057a3.139,3.139,0,0,0,1.8-.381c.159-.082.311-.171.463-.26a1.26,1.26,0,0,0,1,.254,4.952,4.952,0,0,0,2.5-1.034c-.051-.133-.108-.266-.165-.4l-.038-.1a2.7,2.7,0,0,0-.768-1.015c-.355-.209-.768-.3-1.136-.476-.393.33-.577.831-.952,1.174a2.045,2.045,0,0,1-1.5.254,4.1,4.1,0,0,1-1.5-.863,1.685,1.685,0,0,1-.52-.869c-.063-.216-.127-.431-.184-.653-.07-.279-.051-.654-.368-.787l-.038-.019a4.926,4.926,0,0,0-2.3-.527,4.693,4.693,0,0,0-2.018.9,6.656,6.656,0,0,0-1.688,2.842c-.019.063-.051.184-.07.247-.013.044-.032.121-.044.165-.127.5-.349.977-.476,1.478a3.8,3.8,0,0,0,.019.85c0,.051.006.159.013.216.171,0,.343.006.514.013a5.349,5.349,0,0,1,1.174-1.783c.14-.14.26-.3.406-.438.184-.1.3.108.4.222a1.687,1.687,0,0,0,.057,2.037,3.731,3.731,0,0,0-.742.673,1.538,1.538,0,0,0,1.066.863C95.954,152.81,95.491,152.518,95.605,152.011Z" transform="translate(-90.057 -142.139)" fill="none"/>
          <path id="Path_311" data-name="Path 311" d="M170.965,243.4c-.552.025-1.1.006-1.656.025-.07.26-.159.508-.209.774a22.645,22.645,0,0,0,2.367.032A1.836,1.836,0,0,0,170.965,243.4Z" transform="translate(-161.007 -234.467)" fill="none"/>
          <path id="Path_312" data-name="Path 312" d="M147.363,313.724c-.089-.1-.159-.222-.247-.324,0,.152.006.3.013.45-.381.235-.723-.14-1.028-.324.127.14.26.273.387.419A.87.87,0,0,0,147.363,313.724Z" transform="translate(-139.466 -300.026)" fill="none"/>
          <path id="Path_313" data-name="Path 313" d="M90.325,269.348c-.025-.032-.076-.089-.108-.121a10.226,10.226,0,0,0-2.018-.076c.019.044.063.133.089.178A19.809,19.809,0,0,0,90.325,269.348Z" transform="translate(-85.24 -258.55)" fill="none"/>
          <path id="Path_314" data-name="Path 314" d="M97.3,276.8a6.542,6.542,0,0,0,.355,1.707,14.213,14.213,0,0,0,1.186,1.98c.508.5,1.009,1.129,1.777,1.167a3.01,3.01,0,0,0,1.694-.2,1.5,1.5,0,0,0,.774-1.815,2.973,2.973,0,0,0-.92-1.605,1.241,1.241,0,0,0-1.777,1.212c-.038-.914,1.351-1.548,1.884-.711a2.85,2.85,0,0,1,.4,2.3,1.933,1.933,0,0,1-2.684.368,3.634,3.634,0,0,1-1.015-.977c-.228-.393-.431-.812-.666-1.206a15.484,15.484,0,0,1-.736-2.183C97.5,276.832,97.37,276.813,97.3,276.8Z" transform="translate(-93.762 -265.748)" fill="none"/>
          <path id="Path_315" data-name="Path 315" d="M225.8,260.405c-.152.038-.482-.013-.444.247.431.025.869.025,1.3.013.178.006.254-.082.235-.266C226.529,260.4,226.161,260.38,225.8,260.405Z" transform="translate(-213.69 -250.381)" fill="none"/>
          <path id="Path_316" data-name="Path 316" d="M214.77,240.243c-.114-.108-.159-.324-.336-.343a6.259,6.259,0,0,1-1.034.082h-.381c-.019.209-.019.419-.019.628.082.044.254.133.336.184a.859.859,0,0,1,.577-.374c.343.558,1.015.489,1.58.476A5.951,5.951,0,0,1,214.77,240.243Z" transform="translate(-202.122 -231.189)" fill="none"/>
          <path id="Path_317" data-name="Path 317" d="M209.692,114.211l-.013.076a2.209,2.209,0,0,0,2.119.66,1.538,1.538,0,0,0,.723-.666,4.392,4.392,0,0,0,.235-3.185,2.382,2.382,0,0,1-.742-.768c-.349-.482-.926-.99-1.561-.761a1.683,1.683,0,0,0-1.282,1.256,3.394,3.394,0,0,0,.006,2.373C209.242,113.571,209.312,114.034,209.692,114.211Zm1.218-1.872a.726.726,0,0,1-.6.99c-.228-.159-.546-.3-.495-.634C209.73,112.086,210.555,112.105,210.91,112.34Z" transform="translate(-198.338 -109.073)" fill="none"/>
          <path id="Path_318" data-name="Path 318" d="M261.1,259.279c-.025.044-.076.14-.1.19a7.031,7.031,0,0,0,1.155.1,2.491,2.491,0,0,0,1.491-.108,1.568,1.568,0,0,0-.495-.292A13.827,13.827,0,0,0,261.1,259.279Z" transform="translate(-247.076 -249.223)" fill="none"/>
          <path id="Path_319" data-name="Path 319" d="M227.6,269.006c-.622.108-1.256.032-1.878.114a7.457,7.457,0,0,0-2.024-.1c.006.063.013.19.019.254a14.115,14.115,0,0,0,2-.114,6.228,6.228,0,0,0,1.751.038c.3-.032.571.152.863.121C228.4,268.911,227.856,269.025,227.6,269.006Z" transform="translate(-212.143 -258.436)" fill="none"/>
          <path id="Path_320" data-name="Path 320" d="M257.1,276.357a11.781,11.781,0,0,1-1.1-.457,3.157,3.157,0,0,0,.73.666,1.273,1.273,0,0,0,1.06-.425C257.618,275.792,257.313,276.268,257.1,276.357Z" transform="translate(-242.393 -264.905)" fill="none"/>
          <path id="Path_321" data-name="Path 321" d="M307.6,258.977c-.019.152-.032.3-.044.457-.063.038-.184.114-.241.159,0,.14-.013.286-.019.425a9.081,9.081,0,0,0,1.523-.336,1.132,1.132,0,0,0,.032-.527A9.413,9.413,0,0,0,307.6,258.977Z" transform="translate(-290.439 -249.054)" fill="none"/>
          <path id="Path_322" data-name="Path 322" d="M245.606,236.766a.246.246,0,0,0-.406.006c.14.457.634.679.838,1.1-.089.19-.311.393-.159.609a1.007,1.007,0,0,1,.755-.755l-.546-.038A4.934,4.934,0,0,0,245.606,236.766Z" transform="translate(-232.279 -228.157)" fill="none"/>
          <path id="Path_323" data-name="Path 323" d="M135.339,258.793c.381-.114.742.14,1.123.14.73.019,1.459.019,2.189-.013-.006-.082-.019-.254-.025-.336a10.447,10.447,0,0,0-2.919.127,5.444,5.444,0,0,1-.774-.171c-.178-.241-.641-.07-.933-.14.044.133.082.273.121.406.235.006.476.013.711.013C134.983,258.984,135.174,258.806,135.339,258.793Z" transform="translate(-128.134 -248.515)" fill="none"/>
          <path id="Path_324" data-name="Path 324" d="M141.5,270.7c.057.076.114.159.171.235.228.006.463.013.692.025,1.1.006,2.189.025,3.287-.013a1.011,1.011,0,0,1,.082-.14c-1.123-.076-2.246-.089-3.369-.108C142.077,270.706,141.792,270.706,141.5,270.7Z" transform="translate(-135.158 -260.035)" fill="none"/>
          <path id="Path_325" data-name="Path 325" d="M140.447,236.829a4.5,4.5,0,0,1,.546-.387c.025-.146.063-.3.1-.444-.235-.222-.59-.216-.882-.3A1.493,1.493,0,0,0,140.447,236.829Z" transform="translate(-133.921 -227.256)" fill="none"/>
          <path id="Path_326" data-name="Path 326" d="M154.7,242.587c.2.038.406.051.615.07.209-.241.076-.571.057-.857l-.108.057A1.234,1.234,0,0,1,154.7,242.587Z" transform="translate(-147.521 -232.969)" fill="none"/>
          <path id="Path_327" data-name="Path 327" d="M209.969,251.388c.1-.368.482-.476.787-.622-.19-.45-.634-.07-.837.165a3.836,3.836,0,0,1-.419-.431c.393.577.076,1.459.723,1.884a6.949,6.949,0,0,1-.26-.945Z" transform="translate(-198.844 -241.117)" fill="none"/>
          <path id="Path_328" data-name="Path 328" d="M66.335,256.325c-.07.159-.152.324-.235.476a2.113,2.113,0,0,0,.3.565c.038-.019.114-.051.146-.063-.273-.317-.057-.7.121-1A2.051,2.051,0,0,1,66.335,256.325Z" transform="translate(-64.542 -246.549)" fill="#fff"/>
          <path id="Path_329" data-name="Path 329" d="M77.43,257.57l-.025-.07a.662.662,0,0,0-.038.1l-.07.082a.347.347,0,0,0-.044.057c-.165.14-.133.355-.152.546.025.044.082.14.108.19.286.171.228-.457.032-.47a1.128,1.128,0,0,0,.292-.476Z" transform="translate(-74.844 -247.673)" fill="#fff"/>
          <path id="Path_330" data-name="Path 330" d="M222.909,152.843a.727.727,0,0,0,.6-.99c-.355-.235-1.174-.254-1.091.349C222.364,152.532,222.681,152.685,222.909,152.843Z" transform="translate(-210.933 -148.587)" fill="#231f20"/>
          <path id="Path_331" data-name="Path 331" d="M311.231,145.395a1.1,1.1,0,0,0-.07-.895c-.146.044-.292.082-.444.114-.108.152-.209.3-.317.457C310.521,145.388,310.933,145.68,311.231,145.395Z" transform="translate(-293.342 -141.842)" fill="#231f20"/>
          <path id="Path_332" data-name="Path 332" d="M59.154,112.3a12.722,12.722,0,0,0-1.967-.019,1.993,1.993,0,0,0-.939-.45c-.114.051-.228.1-.343.14a1.4,1.4,0,0,1,.838.317,2.879,2.879,0,0,1-.844-.108c-.362.133-.7.336-.755.755-.152-.216.07-.412.159-.609-.2-.425-.692-.647-.837-1.1a.246.246,0,0,1,.406-.006,4.589,4.589,0,0,1,.482.926l.546.038v-.209c-.089.038-.184.076-.273.121a9.431,9.431,0,0,1-.406-1.066c.216.051.425.127.641.171a5.352,5.352,0,0,0,2.823-1.034c.165-.165.457-.311.406-.584a1.192,1.192,0,0,0-.127-.393c-.108-.228-.26-.438-.355-.679.222-.082.45-.165.666-.266a4.519,4.519,0,0,0,1.244-2.9,2.564,2.564,0,0,0-.673-1.586,3.266,3.266,0,0,0-2.551.019,4.13,4.13,0,0,0-.945.685c-.247-.057-.4-.343-.565-.533a2.852,2.852,0,0,0-1.339-1.269,2.239,2.239,0,0,0-1.485.165,1.973,1.973,0,0,0-.609.489,5.284,5.284,0,0,0-.6,2.068c-.108-.044-.216-.082-.324-.127a6.222,6.222,0,0,0-2.348-.444,7.311,7.311,0,0,0-1.624.508,4.793,4.793,0,0,0-2.125,2.728,5.619,5.619,0,0,0-.508,1.516,10.97,10.97,0,0,0-.3,1.428c0,.33.025.66.019.99L44.5,112a3.4,3.4,0,0,1-1.129.247c-.286-.006-.558-.146-.844-.063h-.006c-.3.146-.628.228-.933.368-.07.431-.14,1.028.381,1.193h.558c.66,0,1.313.006,1.973.013h.152a7.236,7.236,0,0,0,.755,2.4,8.315,8.315,0,0,0,1.8,2.309,3.467,3.467,0,0,0,2.551.368c.324-.038.552-.292.844-.412.178-.108.444-.133.508-.362a2.929,2.929,0,0,0-.393-2.995,1.761,1.761,0,0,0-1.694-.692c-.368.057-.6.368-.895.558-.324.2-.641.615-.393,1,.209.4.47.933,1,.9.336-.038.78-.114.926-.463.063-.425-.438-.628-.774-.7.019.209.038.412.057.622-.171-.121-.349-.235-.527-.355.108-.558.73-.546,1.161-.717a2.6,2.6,0,0,1,.539,2.367,1.667,1.667,0,0,1-1.726.317,2.388,2.388,0,0,1-1.58-1.415,4.917,4.917,0,0,1-1-2.849,8.226,8.226,0,0,1,1.047.006c.336.076.634.368,1,.228a9.566,9.566,0,0,1,2.373-.1,16.747,16.747,0,0,1,1.872-.025c.222.063.349.336.609.317.3.1.47-.209.692-.336a14.858,14.858,0,0,1,1.5,0,1.627,1.627,0,0,0,1.1.92,1.808,1.808,0,0,0,1.472-.895,1.926,1.926,0,0,0,1.332.019,24.9,24.9,0,0,1,2.88-.66v-.273A8.3,8.3,0,0,0,59.154,112.3Zm-4.245.019c-.565.013-1.237.082-1.58-.476a.859.859,0,0,0-.577.374l-.336-.184c0-.209,0-.419.019-.628h.381a5.64,5.64,0,0,0,1.034-.082c.178.019.222.235.336.343A7.078,7.078,0,0,0,54.909,112.315Zm-.4.577c-.438.013-.869.013-1.3-.013-.044-.26.286-.209.444-.247.368-.025.73-.006,1.1-.006C54.763,112.81,54.687,112.9,54.509,112.892Zm2.03-7.874a2.61,2.61,0,0,1,1.954-1.1,1.236,1.236,0,0,1,1.428.768,2.958,2.958,0,0,1-.577,2.754c-.311.292-.666.527-.958.838a2.661,2.661,0,0,0-1.865-1.205A9.685,9.685,0,0,0,56.54,105.018Zm-4.162-.66a1.683,1.683,0,0,1,1.282-1.256c.634-.228,1.218.279,1.561.761a2.384,2.384,0,0,0,.742.768,4.392,4.392,0,0,1-.235,3.185,1.536,1.536,0,0,1-.723.666,2.2,2.2,0,0,1-2.119-.66l.013-.076c-.387-.178-.45-.647-.52-1.015A3.43,3.43,0,0,1,52.377,104.359Zm-9.847,9.181a4.9,4.9,0,0,1-.679-.057c-.038-.216-.133-.533.089-.679a1.451,1.451,0,0,0,.52-.552.26.26,0,0,0,.07.006,1.766,1.766,0,0,0,.577-.019c-.019.247-.355.355-.311.609a4.261,4.261,0,0,0,.3.7C42.9,113.546,42.721,113.539,42.53,113.539Zm1.021-.171c-.038.019-.114.051-.146.063a2.43,2.43,0,0,1-.3-.565,4.724,4.724,0,0,0,.235-.476c.108-.006.222-.013.33-.025C43.495,112.67,43.279,113.044,43.552,113.368Zm.343.038c-.025-.044-.082-.14-.108-.19.019-.19-.013-.406.152-.546a.447.447,0,0,0,.044-.057l.07-.082a.66.66,0,0,0,.038-.1l.025.07.089-.038a1.068,1.068,0,0,1-.292.476C44.129,112.949,44.18,113.577,43.895,113.406Zm.463-.533a.45.45,0,0,1,.146-.216,1.673,1.673,0,0,1,.869-.146c.317.044.711-.082.952.19l-.1.228c-.571-.025-1.148-.038-1.719-.051A1.127,1.127,0,0,1,44.358,112.873Zm2.646-.92a2.229,2.229,0,0,1-1.053.178,2.4,2.4,0,0,1,.52-1.459c.114-.025.228-.051.343-.082A1.575,1.575,0,0,0,47,111.953Zm-.914,3.934c.241.393.438.806.666,1.205a3.634,3.634,0,0,0,1.015.977,1.932,1.932,0,0,0,2.684-.368c.362-.774-.089-1.593-.4-2.3-.533-.838-1.922-.2-1.884.711.3.184.647.558,1.028.324-.006-.146-.013-.3-.013-.45.089.1.159.216.247.324a.87.87,0,0,1-.876.222c-.127-.14-.26-.279-.387-.419a1.241,1.241,0,0,1,1.777-1.212,2.912,2.912,0,0,1,.92,1.605,1.5,1.5,0,0,1-.774,1.815,3.017,3.017,0,0,1-1.694.2c-.774-.038-1.275-.666-1.777-1.167a13.509,13.509,0,0,1-1.186-1.98,6.542,6.542,0,0,1-.355-1.707c.07.013.2.032.279.038A14.523,14.523,0,0,0,46.09,115.887Zm-1.5-2.5c-.025-.044-.063-.133-.089-.178a10.23,10.23,0,0,1,2.018.076c.025.032.076.089.108.121A19.811,19.811,0,0,1,44.592,113.387Zm2.087-.66a3.954,3.954,0,0,1,.742-.673,1.7,1.7,0,0,1-.057-2.037c-.1-.121-.216-.33-.4-.222-.146.133-.266.292-.406.438a5.35,5.35,0,0,0-1.174,1.783c-.171-.006-.343-.013-.514-.013,0-.051-.006-.159-.013-.216a3.812,3.812,0,0,1-.019-.85c.127-.5.349-.971.476-1.478.013-.038.032-.121.044-.165.019-.063.051-.184.07-.247a6.864,6.864,0,0,1,1.688-2.842,4.7,4.7,0,0,1,2.018-.9,4.944,4.944,0,0,1,2.3.527l.038.019c.317.127.3.5.368.787.057.216.114.438.184.654a1.774,1.774,0,0,0,.52.869,4.153,4.153,0,0,0,1.5.863,2.045,2.045,0,0,0,1.5-.254c.381-.343.558-.844.952-1.174.368.184.78.266,1.136.476a2.835,2.835,0,0,1,.768,1.015l.038.1c.057.133.108.266.165.4a4.952,4.952,0,0,1-2.5,1.034,1.284,1.284,0,0,1-1-.254c-.152.082-.311.178-.463.26a3.128,3.128,0,0,1-1.8.381l-.463-.057c.07-.317.152-.628.216-.952l-.311.025a2.013,2.013,0,0,0-.222,1.345c.013.171.025.349.032.52a1.305,1.305,0,0,1-.343-.78c.013-.33.057-.654.082-.983-.343-.146-.482.247-.546.5,0,.14.013.279.019.419a3.42,3.42,0,0,1-1.84.013,7.157,7.157,0,0,1-1.307-.374c-.013-.165-.032-.336-.044-.5-.121-.025-.235-.044-.355-.07a3.356,3.356,0,0,0-.355,1.326,2.457,2.457,0,0,0,.527.78c-.279.082-.666.019-.857.279-.114.508.349.8.647,1.11A1.592,1.592,0,0,1,46.68,112.727ZM52,112.372a22.655,22.655,0,0,1-2.367-.032c.051-.26.14-.514.209-.774.552-.019,1.1,0,1.656-.025A1.836,1.836,0,0,1,52,112.372Zm-2.665-.076c-.209-.019-.412-.032-.615-.07a1.272,1.272,0,0,0,.565-.73l.108-.057C49.414,111.725,49.548,112.055,49.338,112.3Zm-.622-.952c-.038.146-.07.292-.1.444a4.222,4.222,0,0,0-.546.387,1.487,1.487,0,0,1-.241-1.129C48.126,111.135,48.482,111.122,48.717,111.344Zm-1.18,1.561c-.038-.133-.076-.273-.121-.406.292.07.755-.1.933.14a5.445,5.445,0,0,0,.774.171,10.212,10.212,0,0,1,2.919-.127c.006.082.019.254.025.336-.73.025-1.459.032-2.189.013-.381,0-.742-.254-1.123-.14-.165.013-.355.19-.5.038C48.006,112.918,47.771,112.911,47.536,112.9Zm4.5.615c-1.1.038-2.189.019-3.287.013-.228-.006-.463-.019-.692-.025-.057-.076-.114-.159-.171-.235.286,0,.571.006.863,0,1.123.013,2.246.032,3.369.108C52.092,113.419,52.054,113.489,52.035,113.52Zm.165-1.535a3.365,3.365,0,0,0,.419.431c.2-.235.654-.609.837-.165-.3.146-.685.254-.787.622l-.006.044a6.137,6.137,0,0,0,.26.945C52.27,113.444,52.593,112.569,52.2,111.985Zm3.686,2.284a3.034,3.034,0,0,1-.73-.666c.362.159.717.33,1.1.457.216-.089.52-.565.7-.216A1.292,1.292,0,0,1,55.886,114.269Zm1.853-.78c-.292.038-.565-.146-.863-.121a6.226,6.226,0,0,1-1.751-.038,13.234,13.234,0,0,1-2,.114c-.006-.063-.013-.19-.019-.254a7.213,7.213,0,0,1,2.024.1c.622-.082,1.256-.006,1.878-.114C57.256,113.2,57.8,113.083,57.739,113.489Zm-1.117-.539a7.03,7.03,0,0,1-1.155-.1c.025-.044.076-.14.1-.19a14.688,14.688,0,0,1,2.049-.114,1.568,1.568,0,0,1,.495.292A2.594,2.594,0,0,1,56.622,112.949Zm3.306.286a9.749,9.749,0,0,1-1.523.336c.013-.14.019-.286.019-.425.057-.038.178-.121.241-.159.013-.152.032-.3.044-.457a8.283,8.283,0,0,1,1.244.184A1.036,1.036,0,0,1,59.928,113.235Z" transform="translate(-41.543 -102.608)" fill="#231f20"/>
          <path id="Path_333" data-name="Path 333" d="M157.028,208.5a1.838,1.838,0,0,0,.539.425c.406.159.692.539,1.117.673-.038.063-.076.133-.114.2-.577-.184-1.193-.044-1.77-.228a.55.55,0,0,0,.159-.812c.013-.063.051-.19.07-.254Z" transform="translate(-149.487 -201.781)" fill="#97eb74"/>
          <path id="Path_334" data-name="Path 334" d="M94.176,218.561c.4-.336.349-1.085.971-1.161.089.114.171.228.254.343a5.35,5.35,0,0,0-1.174,1.783c-.171-.006-.343-.013-.514-.013,0-.051-.006-.159-.013-.216.235-.2.222-.552.476-.736Z" transform="translate(-90.391 -210.117)" fill="#84cb71"/>
          <path id="Path_335" data-name="Path 335" d="M220.219,221.3a9.114,9.114,0,0,1,.964.482,3.128,3.128,0,0,1-1.8.381,2.908,2.908,0,0,1-.013-.7c.057-.006.171-.019.228-.032.057.165.114.33.171.5.159-.2.311-.412.45-.628Z" transform="translate(-208.072 -213.769)" fill="#6cb960"/>
          <path id="Path_336" data-name="Path 336" d="M150.3,224.4c.1.013.3.038.412.057.577.184,1.193.044,1.77.228.038-.063.076-.133.114-.2.19.07.374.127.565.19,0,.14.013.279.019.419a3.42,3.42,0,0,1-1.84.013l.254-.178a2.636,2.636,0,0,1-1.294-.533Z" transform="translate(-143.4 -216.673)" fill="#77c66c"/>
          <path id="Path_337" data-name="Path 337" d="M46.418,254.413a1.85,1.85,0,0,0,.647-.013c-.019.247-.355.355-.311.609a4.261,4.261,0,0,0,.3.7,8.938,8.938,0,0,1-1.237-.07c-.038-.216-.133-.533.089-.679a1.534,1.534,0,0,0,.514-.552Z" transform="translate(-45.495 -244.769)" fill="#d07b84"/>
          <path id="Path_338" data-name="Path 338" d="M307.511,258.977a8.286,8.286,0,0,1,1.244.184,1.137,1.137,0,0,1-.032.527,9.749,9.749,0,0,1-1.523.336c.013-.14.019-.285.019-.425.057-.038.178-.121.241-.159.019-.159.038-.311.051-.463Z" transform="translate(-290.345 -249.054)" fill="#fefefe"/>
          <path id="Path_339" data-name="Path 339" d="M91.112,258.5c.292.07.755-.1.933.14l-.2-.025c.032.1.063.209.1.311-.235,0-.476-.013-.711-.013-.038-.14-.082-.279-.121-.412m-2.912.711a10.228,10.228,0,0,1,2.018.076c.025.032.076.089.108.121a19.809,19.809,0,0,1-2.037-.019c-.025-.044-.07-.133-.089-.178Z" transform="translate(-85.24 -248.609)" fill="#e1cb86"/>
          <path id="Path_340" data-name="Path 340" d="M85.9,259.062c.127-.419.673-.343,1.021-.362.317.044.711-.082.952.19l-.1.228c-.628-.032-1.25-.038-1.872-.057m4.391.406c1.123.013,2.246.032,3.369.108-.019.038-.063.108-.082.14-1.1.038-2.189.019-3.287.013v-.26Z" transform="translate(-83.086 -248.796)" fill="#ddc377"/>
          <path id="Path_341" data-name="Path 341" d="M141.76,260.3l.2.025a5.441,5.441,0,0,0,.774.171,10.211,10.211,0,0,1,2.919-.127c.006.082.019.254.025.336-.73.025-1.459.032-2.189.013-.381,0-.742-.254-1.123-.14-.165.013-.355.19-.5.038-.044-.114-.076-.216-.108-.317m-.26.66c.286,0,.571.006.863,0v.26c-.228-.006-.463-.019-.692-.025-.057-.076-.114-.152-.171-.235Z" transform="translate(-135.158 -250.295)" fill="#dcc576"/>
          <path id="Path_342" data-name="Path 342" d="M223.808,259.5c-.044-.26.286-.209.444-.247.368-.025.73-.006,1.1-.006.019.184-.057.273-.235.266-.438.013-.876.013-1.307-.013m2.36-.216a14.69,14.69,0,0,1,2.049-.114,1.568,1.568,0,0,1,.495.292,2.538,2.538,0,0,1-1.491.108,7.035,7.035,0,0,1-1.155-.1c.025-.051.076-.146.1-.19m-2.468.533a7.213,7.213,0,0,1,2.024.1c.622-.082,1.256-.006,1.878-.114.26.019.8-.1.736.311-.292.038-.565-.146-.863-.121a6.226,6.226,0,0,1-1.751-.038,13.237,13.237,0,0,1-2,.114c-.006-.063-.013-.19-.019-.254Z" transform="translate(-212.143 -249.229)" fill="#f5d776"/>
          <path id="Path_343" data-name="Path 343" d="M216.8,264.544c0-.013.006-.032.006-.044l-.006.044Z" transform="translate(-205.68 -254.228)" fill="#959d64"/>
        </g>
      </g>
    </g>
  </g>
</svg>
