<svg xmlns="http://www.w3.org/2000/svg" width="45" height="45" viewBox="0 0 45 45">
  <g id="photoshop-lt" transform="translate(-0.147 -0.01)">
    <g id="Rectangle_10" data-name="Rectangle 10" transform="translate(0.147 0.01)" fill="#fff" stroke="#e6e6e6" stroke-width="1">
      <rect width="45" height="45" rx="10" stroke="none"/>
      <rect x="0.5" y="0.5" width="44" height="44" rx="9.5" fill="none"/>
    </g>
    <g id="Group_34" data-name="Group 34" transform="translate(-0.989 0.831)">
      <path id="Path_105" data-name="Path 105" d="M115.24,146.7V127.4c0-.14.06-.211.181-.211.321,0,.616,0,1.055-.015s.921-.02,1.435-.03l1.631-.031q.86-.015,1.705-.015a11.388,11.388,0,0,1,3.87.573,6.72,6.72,0,0,1,2.521,1.54,5.9,5.9,0,0,1,1.374,2.129,7.064,7.064,0,0,1,.421,2.433,6.708,6.708,0,0,1-1.117,3.986,6.317,6.317,0,0,1-3.019,2.28,12.033,12.033,0,0,1-4.228.633c-.44,0-.755,0-.936-.015s-.453-.015-.815-.015v6.024a.239.239,0,0,1-.2.272.219.219,0,0,1-.068,0h-3.595C115.307,146.938,115.24,146.858,115.24,146.7Zm4.078-15.883v6.293q.392.031.725.03h1a7.085,7.085,0,0,0,2.159-.345,3.254,3.254,0,0,0,1.54-.994,2.9,2.9,0,0,0,.588-1.935,3.056,3.056,0,0,0-.44-1.661,2.814,2.814,0,0,0-1.312-1.072,5.6,5.6,0,0,0-2.2-.377q-.726,0-1.283.015t-.77.046Z" transform="translate(-105.104 -115.921)" fill="#31a8ff"/>
      <path id="Path_106" data-name="Path 106" d="M308.5,184.032a7.035,7.035,0,0,0-1.8-.634,9.524,9.524,0,0,0-2.1-.242,3.9,3.9,0,0,0-1.132.136,1.016,1.016,0,0,0-.589.377.949.949,0,0,0-.15.514.8.8,0,0,0,.181.483,2.045,2.045,0,0,0,.634.5,12.47,12.47,0,0,0,1.328.616,13.193,13.193,0,0,1,2.884,1.374,4.4,4.4,0,0,1,1.479,1.555,4.148,4.148,0,0,1,.44,1.935,4.346,4.346,0,0,1-.725,2.492,4.77,4.77,0,0,1-2.1,1.676,8.454,8.454,0,0,1-3.4.605,12.36,12.36,0,0,1-2.551-.242,8.13,8.13,0,0,1-1.917-.6.391.391,0,0,1-.212-.362v-3.26a.176.176,0,0,1,.076-.166.146.146,0,0,1,.166.015,8.058,8.058,0,0,0,2.327.921,9.556,9.556,0,0,0,2.2.287,3.39,3.39,0,0,0,1.555-.272.853.853,0,0,0,.5-.785,1,1,0,0,0-.453-.756,7.394,7.394,0,0,0-1.844-.871,11.087,11.087,0,0,1-2.672-1.359,4.61,4.61,0,0,1-1.42-1.583,4.164,4.164,0,0,1-.44-1.917,4.329,4.329,0,0,1,.635-2.271,4.607,4.607,0,0,1,1.963-1.721,7.394,7.394,0,0,1,3.321-.664,14.7,14.7,0,0,1,2.326.165,6.119,6.119,0,0,1,1.618.44.275.275,0,0,1,.181.166.82.82,0,0,1,.03.226v3.05a.2.2,0,0,1-.088.181A.293.293,0,0,1,308.5,184.032Z" transform="translate(-272.497 -163.99)" fill="#31a8ff"/>
    </g>
  </g>
</svg>
