<svg xmlns="http://www.w3.org/2000/svg" width="45" height="45" viewBox="0 0 45 45">
  <g id="Sketch-lt" transform="translate(61.444 -0.01)">
    <g id="Rectangle_13" data-name="Rectangle 13" transform="translate(-61.444 0.01)" fill="none" stroke="#e6e6e6" stroke-width="1">
      <rect width="45" height="45" rx="10" stroke="none"/>
      <rect x="0.5" y="0.5" width="44" height="44" rx="9.5" fill="none"/>
    </g>
    <g id="Layer_x0020_1" transform="translate(-52.444 10.01)">
      <g id="Sketch_Logo.svg">
        <g id="Page-1">
          <g id="sketch-symbol">
            <path id="Path" d="M6.185.845,14.175,0l7.989.845,6.185,8.3L14.175,25.654,0,9.148Z" fill="#fdb300" fill-rule="evenodd"/>
            <g id="Group" transform="translate(0 9.148)">
              <path id="Path_0" d="M5.741,1092.41l8.433,16.506L0,1092.41Z" transform="translate(0 -1092.41)" fill="#ea6c00" fill-rule="evenodd"/>
              <path id="Path_1" d="M1701.133,1092.41l-8.433,16.506,14.174-16.506Z" transform="translate(-1678.525 -1092.41)" fill="#ea6c00" fill-rule="evenodd"/>
              <path id="Path_2" d="M685.62,1092.41h16.866l-8.433,16.506Z" transform="translate(-679.879 -1092.41)" fill="#fdad00" fill-rule="evenodd"/>
            </g>
            <g id="Group_3">
              <path id="Path_4" d="M694.053,0l-7.989.845-.444,8.3Z" transform="translate(-679.879)" fill="#fdd231" fill-rule="evenodd"/>
              <path id="Path_5" d="M1692.7,0l7.989.845.444,8.3Z" transform="translate(-1678.525)" fill="#fdd231" fill-rule="evenodd"/>
              <path id="Path_6" d="M2652.945,109.163l-6.185-8.3.444,8.3Z" transform="translate(-2624.596 -100.015)" fill="#fdad00" fill-rule="evenodd"/>
              <path id="Path_7" d="M0,109.163l6.185-8.3-.444,8.3Z" transform="translate(0 -100.015)" fill="#fdad00" fill-rule="evenodd"/>
              <path id="Path_8" d="M694.053,0,685.62,9.148h16.866Z" transform="translate(-679.879)" fill="#feeeb7" fill-rule="evenodd"/>
            </g>
          </g>
        </g>
      </g>
    </g>
  </g>
</svg>
