<svg xmlns="http://www.w3.org/2000/svg" width="46" height="46" viewBox="0 0 46 46">
  <g id="slack-lt" transform="translate(0.108 1)">
    <rect id="Rectangle_19" data-name="Rectangle 19" width="45" height="45" rx="10" transform="translate(0.392 -0.5)" fill="none" stroke="#e6e6e6" stroke-width="1"/>
    <g id="Slack_icon_2019" transform="translate(7.892 8)">
      <path id="Path_149" data-name="Path 149" d="M6.818,69.809A3.009,3.009,0,1,1,3.809,66.8H6.818Zm1.5,0a3.009,3.009,0,0,1,6.018,0v7.523a3.009,3.009,0,1,1-6.018,0Z" transform="translate(-0.777 -51.709)" fill="#e01e5a"/>
      <path id="Path_150" data-name="Path 150" d="M11.255,6.618a3.009,3.009,0,1,1,3.009-3.009V6.618Zm0,1.527a3.009,3.009,0,0,1,0,6.018H3.709a3.009,3.009,0,0,1,0-6.018Z" transform="translate(-0.7 -0.6)" fill="#36c5f0"/>
      <path id="Path_151" data-name="Path 151" d="M74.423,11.155a3.009,3.009,0,1,1,3.009,3.009H74.423Zm-1.5,0a3.009,3.009,0,0,1-6.018,0V3.609a3.009,3.009,0,1,1,6.018,0v7.546Z" transform="translate(-51.809 -0.6)" fill="#2eb67d"/>
      <path id="Path_152" data-name="Path 152" d="M69.909,74.323A3.009,3.009,0,1,1,66.9,77.332V74.323Zm0-1.5a3.009,3.009,0,1,1,0-6.018h7.546a3.009,3.009,0,1,1,0,6.018Z" transform="translate(-51.809 -51.709)" fill="#ecb22e"/>
    </g>
  </g>
</svg>
