<svg xmlns="http://www.w3.org/2000/svg" xmlns:xlink="http://www.w3.org/1999/xlink" width="46" height="46" viewBox="0 0 46 46">
  <defs>
    <linearGradient id="linear-gradient" x1="0.5" y1="1.008" x2="0.5" y2="0.008" gradientUnits="objectBoundingBox">
      <stop offset="0" stop-color="#fff"/>
      <stop offset="1" stop-color="#fff" stop-opacity="0"/>
    </linearGradient>
  </defs>
  <g id="visualstudio-lt" transform="translate(0.472 0.225)">
    <rect id="Rectangle_13" data-name="Rectangle 13" width="45" height="45" rx="10" transform="translate(0.028 0.275)" fill="none" stroke="#e6e6e6" stroke-width="1"/>
    <g id="visual-studio-code-icon" transform="translate(9.528 9.275)">
      <path id="Path_180" data-name="Path 180" d="M23.747,3.271,18.644.813a1.542,1.542,0,0,0-1.76.3L.178,16.344a1.033,1.033,0,0,0,0,1.527l1.364,1.24a1.032,1.032,0,0,0,1.318.059L22.979,3.908a1.025,1.025,0,0,1,1.645.817V4.666A1.547,1.547,0,0,0,23.747,3.271Z" transform="translate(0.159 -0.66)" fill="#0065a9"/>
      <g id="Group_30" data-name="Group 30" transform="translate(0 5.922)">
        <path id="Path_181" data-name="Path 181" d="M23.747,77.972l-5.1,2.457a1.542,1.542,0,0,1-1.76-.3L.178,64.9a1.032,1.032,0,0,1,0-1.526l1.364-1.24a1.032,1.032,0,0,1,1.318-.059L22.979,77.335a1.025,1.025,0,0,0,1.645-.817v.059A1.547,1.547,0,0,1,23.747,77.972Z" transform="translate(0.159 -61.864)" fill="#007acc"/>
      </g>
      <g id="Group_31" data-name="Group 31" transform="translate(17.043 0)">
        <path id="Path_182" data-name="Path 182" d="M177.761,25.145a1.543,1.543,0,0,1-1.761-.3.907.907,0,0,0,1.548-.641V1.751A.907.907,0,0,0,176,1.11a1.546,1.546,0,0,1,1.761-.3l5.1,2.454a1.549,1.549,0,0,1,.878,1.4V21.3a1.547,1.547,0,0,1-.878,1.4Z" transform="translate(-176 -0.658)" fill="#1f9cf0"/>
      </g>
      <g id="Group_32" data-name="Group 32" transform="translate(0 0.001)" opacity="0.25">
        <path id="Path_183" data-name="Path 183" d="M17.4,25.2a1.541,1.541,0,0,0,1.229-.047l5.1-2.454a1.547,1.547,0,0,0,.877-1.4V4.665a1.548,1.548,0,0,0-.877-1.4L18.633.816a1.542,1.542,0,0,0-1.575.142,1.577,1.577,0,0,0-.185.158L7.112,10.022,2.86,6.793a1.029,1.029,0,0,0-1.317.059L.179,8.093a1.033,1.033,0,0,0,0,1.527l3.688,3.364L.178,16.347a1.033,1.033,0,0,0,0,1.527l1.364,1.24a1.031,1.031,0,0,0,1.317.059l4.252-3.227,9.762,8.906A1.542,1.542,0,0,0,17.4,25.2ZM18.42,7.361l-7.407,5.622,7.407,5.623Z" transform="translate(0.159 -0.664)" fill-rule="evenodd" fill="url(#linear-gradient)"/>
      </g>
    </g>
  </g>
</svg>
