<svg xmlns="http://www.w3.org/2000/svg" width="45" height="45" viewBox="0 0 45 45">
  <g id="wordpress-lt" transform="translate(-0.445 -0.275)">
    <g id="Rectangle_12" data-name="Rectangle 12" transform="translate(0.445 0.275)" fill="none" stroke="#e6e6e6" stroke-width="1">
      <rect width="45" height="45" rx="10" stroke="none"/>
      <rect x="0.5" y="0.5" width="44" height="44" rx="9.5" fill="none"/>
    </g>
    <g id="wordpress-icon" transform="translate(10.233 10.064)">
      <path id="Path_169" data-name="Path 169" d="M12.4,0a12.4,12.4,0,1,0,12.4,12.4A12.405,12.405,0,0,0,12.4,0Zm9.071,7.446a7.934,7.934,0,0,1,.069,1.062,9.77,9.77,0,0,1-.785,3.7L17.6,21.338A10.337,10.337,0,0,0,21.476,7.446Zm-8.889,5.863-3.1,9.013a10.333,10.333,0,0,0,6.352-.164.958.958,0,0,1-.075-.143l-3.176-8.706Zm6.8-1.425a5.439,5.439,0,0,0-.852-2.851,4.833,4.833,0,0,1-1.016-2.425,1.79,1.79,0,0,1,1.736-1.835c.046,0,.089.006.133.008A10.334,10.334,0,0,0,3.767,6.727c.242.008.47.012.666.012,1.08,0,2.756-.131,2.756-.131a.427.427,0,0,1,.067.852s-.559.065-1.183.1l3.763,11.2L12.1,11.972,10.488,7.559c-.557-.032-1.084-.1-1.084-.1a.427.427,0,0,1,.065-.852s1.706.131,2.722.131c1.08,0,2.756-.131,2.756-.131a.427.427,0,0,1,.067.852s-.561.065-1.183.1l3.735,11.11,1.066-3.38a11.878,11.878,0,0,0,.751-3.406ZM2.067,12.4a10.338,10.338,0,0,0,5.827,9.3L2.962,8.2A10.3,10.3,0,0,0,2.067,12.4ZM12.4.745a11.59,11.59,0,0,1,4.539.917,11.674,11.674,0,0,1,3.707,2.5,11.657,11.657,0,0,1,1.423,1.726,11.68,11.68,0,0,1,1.074,11.058,11.674,11.674,0,0,1-2.5,3.707,11.657,11.657,0,0,1-1.726,1.423A11.68,11.68,0,0,1,7.866,23.147a11.674,11.674,0,0,1-3.707-2.5,11.657,11.657,0,0,1-1.423-1.726A11.68,11.68,0,0,1,1.662,7.866a11.674,11.674,0,0,1,2.5-3.707A11.657,11.657,0,0,1,5.885,2.736,11.622,11.622,0,0,1,12.4.745Z" fill="#3858e9"/>
    </g>
  </g>
</svg>
