<svg xmlns="http://www.w3.org/2000/svg" width="45" height="45" viewBox="0 0 45 45">
  <g id="xd-lt" transform="translate(0.062 -0.01)">
    <g id="Rectangle_13" data-name="Rectangle 13" transform="translate(-0.062 0.01)" fill="none" stroke="#e6e6e6" stroke-width="1">
      <rect width="45" height="45" rx="10" stroke="none"/>
      <rect x="0.5" y="0.5" width="44" height="44" rx="9.5" fill="none"/>
    </g>
    <g id="Group_36" data-name="Group 36" transform="translate(0.35 2.352)">
      <path id="Path_111" data-name="Path 111" d="M91.807,128.187,86.161,137.5l6.04,9.9a.31.31,0,0,1,.03.228c-.02.071-.088.026-.212.046H87.711c-.3,0-.516-.011-.637-.213q-.607-1.184-1.214-2.352t-1.29-2.384q-.682-1.213-1.35-2.459h-.031q-.607,1.215-1.26,2.429t-1.29,2.413q-.638,1.2-1.305,2.384c-.081.182-.223.2-.425.2h-4.16c-.08,0-.125.032-.136-.049a.306.306,0,0,1,.045-.213l5.858-9.624-5.706-9.651c-.061-.08-.071-.147-.03-.2a.217.217,0,0,1,.182-.072h4.28a.645.645,0,0,1,.274.045.561.561,0,0,1,.182.168q.546,1.213,1.214,2.428t1.351,2.392q.682,1.184,1.259,2.4h.031q.607-1.244,1.229-2.428t1.275-2.384q.652-1.2,1.259-2.384a.475.475,0,0,1,.122-.2.436.436,0,0,1,.243-.045h3.973a.177.177,0,0,1,.152.3Z" transform="translate(-68.021 -116.585)" fill="#ff61f6"/>
      <path id="Path_112" data-name="Path 112" d="M286.232,131.206a9.407,9.407,0,0,1-4.053-.849,6.453,6.453,0,0,1-2.839-2.565,8.216,8.216,0,0,1-1.032-4.295,7.947,7.947,0,0,1,1.032-3.973,7.578,7.578,0,0,1,3-2.914,9.706,9.706,0,0,1,4.768-1.092c.1,0,.232,0,.395.015s.353.026.577.045v-5.983c0-.141.061-.212.182-.212h3.824a.162.162,0,0,1,.183.136.2.2,0,0,1,0,.046V127.5q0,.517.045,1.123t.076,1.093a.314.314,0,0,1-.182.3,15.07,15.07,0,0,1-3.066.91A16.458,16.458,0,0,1,286.232,131.206Zm1.854-3.763v-8.286a2.933,2.933,0,0,0-.5-.088,6.119,6.119,0,0,0-.622-.031,4.693,4.693,0,0,0-2.125.486,3.914,3.914,0,0,0-2.212,3.794,5.349,5.349,0,0,0,.319,1.942,3.7,3.7,0,0,0,.849,1.336,3.251,3.251,0,0,0,1.275.759,5,5,0,0,0,1.564.242q.424,0,.788-.03a3.239,3.239,0,0,0,.66-.124Z" transform="translate(-253.735 -99.723)" fill="#ff61f6"/>
    </g>
  </g>
</svg>
